<svg width="43" height="43" viewBox="0 0 43 43" fill="none" xmlns="http://www.w3.org/2000/svg">
<g id="Vector">
<mask id="path-1-outside-1_481_2" maskUnits="userSpaceOnUse" x="0" y="0" width="43" height="43" fill="black">
<rect fill="white" width="43" height="43"/>
<path d="M41.3593 36.691H39.9878V20.9071C39.9878 19.1941 38.6034 17.8009 36.9012 17.8009H31.0542C31.0959 17.7171 31.1337 17.6314 31.1651 17.5431C32.085 18.0066 33.085 17.8074 33.7526 17.1988C34.4809 16.5341 34.6859 15.5078 34.3541 14.6349C34.7148 14.5427 35.0588 14.3718 35.3451 14.1107C36.2926 13.2468 36.365 11.7679 35.5066 10.8144L33.9524 9.0886L41.7834 2.12789C42.0486 1.89193 42.0736 1.48449 41.8398 1.21759C41.6047 0.950684 41.2005 0.926185 40.9352 1.1615L33.0921 8.13253L32.044 6.96886C31.1849 6.01537 29.716 5.94316 28.7679 6.8064C28.4828 7.06621 28.2771 7.39178 28.1509 7.74442C27.2771 7.3041 26.2573 7.45947 25.5577 8.099C24.8549 8.73853 24.6051 9.7436 24.9581 10.6616C24.5936 10.7532 24.254 10.9234 23.9696 11.1832C23.0208 12.0477 22.9427 13.5196 23.8075 14.4795L26.7986 17.8009H15.5819C16.3929 16.9938 16.8965 15.8746 16.8965 14.6387C16.8965 12.9574 15.965 11.4914 14.594 10.7338C14.801 9.37484 15.7472 5.12247 19.5832 4.27212C19.9292 4.19541 20.1476 3.85179 20.0714 3.50365C19.9952 3.15552 19.6505 2.93439 19.3084 3.01305C14.8945 3.99168 13.6818 8.44262 13.3666 10.2787C13.0777 10.2187 12.7792 10.1872 12.4729 10.1872C10.0334 10.1872 8.04943 12.1844 8.04943 14.6387C8.04943 15.8746 8.55296 16.9938 9.36399 17.8009H6.09809C4.39659 17.8009 3.0122 19.1941 3.0122 20.9071V36.691H1.64062C1.28636 36.691 1 36.9798 1 37.3357V41.3553C1 41.7112 1.28636 42 1.64062 42H41.3593C41.7136 42 42 41.7112 42 41.3553V37.3357C42 36.9798 41.7136 36.691 41.3593 36.691ZM29.6276 7.76183C30.1036 7.32795 30.7589 7.46205 31.094 7.83403C31.1632 7.91075 34.6475 11.7802 34.5565 11.6796C34.9409 12.1064 34.9089 12.7678 34.4854 13.1547C34.1555 13.4538 33.7269 13.4718 33.4265 13.3616C33.3669 13.2952 29.0485 8.5 29.3201 8.80171C29.2233 8.43102 29.3406 8.02422 29.6276 7.76183ZM26.418 9.05379C26.8409 8.66762 27.4988 8.69856 27.8832 9.12599L32.9639 14.7677C33.3483 15.1945 33.3163 15.8559 32.8922 16.2434C32.4726 16.627 31.8159 16.5934 31.4316 16.166L26.3508 10.5243C25.9613 10.0937 25.9991 9.43609 26.418 9.05379ZM28.2201 17.4592L24.7569 13.6137C24.3757 13.1908 24.3969 12.5325 24.8293 12.138C25.0196 11.9639 25.2649 11.8698 25.5237 11.8698C25.541 11.8698 25.559 11.8704 25.5769 11.8711C25.6877 11.8762 25.7947 11.8994 25.8959 11.9407L29.985 16.4806C30.0907 16.8539 29.9767 17.2652 29.6852 17.5308C29.2682 17.9138 28.6103 17.8925 28.2201 17.4592ZM9.33068 14.6381C9.33068 12.8942 10.7401 11.4759 12.4729 11.4759C14.2058 11.4759 15.6152 12.8948 15.6152 14.6381C15.6152 16.3813 14.2058 17.8003 12.4729 17.8003C10.7401 17.8003 9.33068 16.382 9.33068 14.6381ZM6.09809 19.0903C15.8798 19.0903 27.1304 19.0903 36.9012 19.0903C37.8968 19.0903 38.7065 19.9052 38.7065 20.9071V24.9383C36.4054 25.202 34.9364 26.9046 34.7327 29.6445C34.7282 29.6742 34.7263 29.7051 34.7263 29.7354C34.7263 30.5639 34.0562 31.2382 33.233 31.2382C32.4098 31.2382 31.7397 30.5639 31.7397 29.7354V27.3836C31.7397 25.6184 30.3124 24.1827 28.5584 24.1827C26.8043 24.1827 25.377 25.6191 25.377 27.3836V28.662C25.377 29.2932 24.8665 29.807 24.2399 29.807C23.6128 29.807 23.1022 29.2932 23.1022 28.662V24.8783C23.1022 23.4233 21.926 22.2396 20.4801 22.2396C19.0342 22.2396 17.858 23.4233 17.858 24.8783V26.1568C17.858 26.5906 17.507 26.9439 17.0758 26.9439C16.6447 26.9439 16.2936 26.5913 16.2936 26.1568V23.8049C16.2936 22.0398 14.8663 20.604 13.1123 20.604C11.3583 20.604 9.93094 22.0404 9.93094 23.8049V27.4352C9.93094 27.7846 9.64907 28.0683 9.30185 28.0683C8.95463 28.0683 8.67212 27.784 8.67212 27.4352V24.5715C8.67212 23.511 7.81496 22.649 6.76178 22.649H4.29345V20.9071C4.29345 19.9052 5.10256 19.0903 6.09809 19.0903ZM4.29345 23.9371H6.76242C7.10963 23.9371 7.39151 24.2214 7.39151 24.5702V27.4339C7.39151 28.4944 8.24866 29.3564 9.30249 29.3564C10.3563 29.3564 11.2128 28.4938 11.2128 27.4339V23.8036C11.2128 22.7496 12.0649 21.8921 13.1129 21.8921C14.161 21.8921 15.013 22.7496 15.013 23.8036V26.1555C15.013 27.3004 15.9381 28.232 17.0765 28.232C18.2142 28.232 19.1399 27.3004 19.1399 26.1555V24.877C19.1399 24.1331 19.7408 23.5277 20.4807 23.5277C21.2207 23.5277 21.8216 24.1331 21.8216 24.877V28.6607C21.8216 30.003 22.9068 31.0951 24.2406 31.0951C25.5743 31.0951 26.6589 30.003 26.6589 28.6607V27.3823C26.6589 26.3282 27.511 25.4708 28.559 25.4708C29.6071 25.4708 30.4591 26.3282 30.4591 27.3823V29.7341C30.4591 31.2737 31.7038 32.5263 33.2337 32.5263C34.7494 32.5263 35.9851 31.2969 36.0076 29.7767C36.0101 29.7548 36.0114 29.7322 36.0133 29.7096C36.1011 28.5073 36.5822 26.5655 38.7071 26.2386V36.6903H4.29345V23.9371ZM40.7187 40.7106H2.28125V37.9804C15.1424 37.9804 27.9459 37.9804 40.7187 37.9804V40.7106Z"/>
</mask>
<path d="M41.3593 36.691H39.9878V20.9071C39.9878 19.1941 38.6034 17.8009 36.9012 17.8009H31.0542C31.0959 17.7171 31.1337 17.6314 31.1651 17.5431C32.085 18.0066 33.085 17.8074 33.7526 17.1988C34.4809 16.5341 34.6859 15.5078 34.3541 14.6349C34.7148 14.5427 35.0588 14.3718 35.3451 14.1107C36.2926 13.2468 36.365 11.7679 35.5066 10.8144L33.9524 9.0886L41.7834 2.12789C42.0486 1.89193 42.0736 1.48449 41.8398 1.21759C41.6047 0.950684 41.2005 0.926185 40.9352 1.1615L33.0921 8.13253L32.044 6.96886C31.1849 6.01537 29.716 5.94316 28.7679 6.8064C28.4828 7.06621 28.2771 7.39178 28.1509 7.74442C27.2771 7.3041 26.2573 7.45947 25.5577 8.099C24.8549 8.73853 24.6051 9.7436 24.9581 10.6616C24.5936 10.7532 24.254 10.9234 23.9696 11.1832C23.0208 12.0477 22.9427 13.5196 23.8075 14.4795L26.7986 17.8009H15.5819C16.3929 16.9938 16.8965 15.8746 16.8965 14.6387C16.8965 12.9574 15.965 11.4914 14.594 10.7338C14.801 9.37484 15.7472 5.12247 19.5832 4.27212C19.9292 4.19541 20.1476 3.85179 20.0714 3.50365C19.9952 3.15552 19.6505 2.93439 19.3084 3.01305C14.8945 3.99168 13.6818 8.44262 13.3666 10.2787C13.0777 10.2187 12.7792 10.1872 12.4729 10.1872C10.0334 10.1872 8.04943 12.1844 8.04943 14.6387C8.04943 15.8746 8.55296 16.9938 9.36399 17.8009H6.09809C4.39659 17.8009 3.0122 19.1941 3.0122 20.9071V36.691H1.64062C1.28636 36.691 1 36.9798 1 37.3357V41.3553C1 41.7112 1.28636 42 1.64062 42H41.3593C41.7136 42 42 41.7112 42 41.3553V37.3357C42 36.9798 41.7136 36.691 41.3593 36.691ZM29.6276 7.76183C30.1036 7.32795 30.7589 7.46205 31.094 7.83403C31.1632 7.91075 34.6475 11.7802 34.5565 11.6796C34.9409 12.1064 34.9089 12.7678 34.4854 13.1547C34.1555 13.4538 33.7269 13.4718 33.4265 13.3616C33.3669 13.2952 29.0485 8.5 29.3201 8.80171C29.2233 8.43102 29.3406 8.02422 29.6276 7.76183ZM26.418 9.05379C26.8409 8.66762 27.4988 8.69856 27.8832 9.12599L32.9639 14.7677C33.3483 15.1945 33.3163 15.8559 32.8922 16.2434C32.4726 16.627 31.8159 16.5934 31.4316 16.166L26.3508 10.5243C25.9613 10.0937 25.9991 9.43609 26.418 9.05379ZM28.2201 17.4592L24.7569 13.6137C24.3757 13.1908 24.3969 12.5325 24.8293 12.138C25.0196 11.9639 25.2649 11.8698 25.5237 11.8698C25.541 11.8698 25.559 11.8704 25.5769 11.8711C25.6877 11.8762 25.7947 11.8994 25.8959 11.9407L29.985 16.4806C30.0907 16.8539 29.9767 17.2652 29.6852 17.5308C29.2682 17.9138 28.6103 17.8925 28.2201 17.4592ZM9.33068 14.6381C9.33068 12.8942 10.7401 11.4759 12.4729 11.4759C14.2058 11.4759 15.6152 12.8948 15.6152 14.6381C15.6152 16.3813 14.2058 17.8003 12.4729 17.8003C10.7401 17.8003 9.33068 16.382 9.33068 14.6381ZM6.09809 19.0903C15.8798 19.0903 27.1304 19.0903 36.9012 19.0903C37.8968 19.0903 38.7065 19.9052 38.7065 20.9071V24.9383C36.4054 25.202 34.9364 26.9046 34.7327 29.6445C34.7282 29.6742 34.7263 29.7051 34.7263 29.7354C34.7263 30.5639 34.0562 31.2382 33.233 31.2382C32.4098 31.2382 31.7397 30.5639 31.7397 29.7354V27.3836C31.7397 25.6184 30.3124 24.1827 28.5584 24.1827C26.8043 24.1827 25.377 25.6191 25.377 27.3836V28.662C25.377 29.2932 24.8665 29.807 24.2399 29.807C23.6128 29.807 23.1022 29.2932 23.1022 28.662V24.8783C23.1022 23.4233 21.926 22.2396 20.4801 22.2396C19.0342 22.2396 17.858 23.4233 17.858 24.8783V26.1568C17.858 26.5906 17.507 26.9439 17.0758 26.9439C16.6447 26.9439 16.2936 26.5913 16.2936 26.1568V23.8049C16.2936 22.0398 14.8663 20.604 13.1123 20.604C11.3583 20.604 9.93094 22.0404 9.93094 23.8049V27.4352C9.93094 27.7846 9.64907 28.0683 9.30185 28.0683C8.95463 28.0683 8.67212 27.784 8.67212 27.4352V24.5715C8.67212 23.511 7.81496 22.649 6.76178 22.649H4.29345V20.9071C4.29345 19.9052 5.10256 19.0903 6.09809 19.0903ZM4.29345 23.9371H6.76242C7.10963 23.9371 7.39151 24.2214 7.39151 24.5702V27.4339C7.39151 28.4944 8.24866 29.3564 9.30249 29.3564C10.3563 29.3564 11.2128 28.4938 11.2128 27.4339V23.8036C11.2128 22.7496 12.0649 21.8921 13.1129 21.8921C14.161 21.8921 15.013 22.7496 15.013 23.8036V26.1555C15.013 27.3004 15.9381 28.232 17.0765 28.232C18.2142 28.232 19.1399 27.3004 19.1399 26.1555V24.877C19.1399 24.1331 19.7408 23.5277 20.4807 23.5277C21.2207 23.5277 21.8216 24.1331 21.8216 24.877V28.6607C21.8216 30.003 22.9068 31.0951 24.2406 31.0951C25.5743 31.0951 26.6589 30.003 26.6589 28.6607V27.3823C26.6589 26.3282 27.511 25.4708 28.559 25.4708C29.6071 25.4708 30.4591 26.3282 30.4591 27.3823V29.7341C30.4591 31.2737 31.7038 32.5263 33.2337 32.5263C34.7494 32.5263 35.9851 31.2969 36.0076 29.7767C36.0101 29.7548 36.0114 29.7322 36.0133 29.7096C36.1011 28.5073 36.5822 26.5655 38.7071 26.2386V36.6903H4.29345V23.9371ZM40.7187 40.7106H2.28125V37.9804C15.1424 37.9804 27.9459 37.9804 40.7187 37.9804V40.7106Z" fill="#A05D45"/>
<path d="M41.3593 36.691H39.9878V20.9071C39.9878 19.1941 38.6034 17.8009 36.9012 17.8009H31.0542C31.0959 17.7171 31.1337 17.6314 31.1651 17.5431C32.085 18.0066 33.085 17.8074 33.7526 17.1988C34.4809 16.5341 34.6859 15.5078 34.3541 14.6349C34.7148 14.5427 35.0588 14.3718 35.3451 14.1107C36.2926 13.2468 36.365 11.7679 35.5066 10.8144L33.9524 9.0886L41.7834 2.12789C42.0486 1.89193 42.0736 1.48449 41.8398 1.21759C41.6047 0.950684 41.2005 0.926185 40.9352 1.1615L33.0921 8.13253L32.044 6.96886C31.1849 6.01537 29.716 5.94316 28.7679 6.8064C28.4828 7.06621 28.2771 7.39178 28.1509 7.74442C27.2771 7.3041 26.2573 7.45947 25.5577 8.099C24.8549 8.73853 24.6051 9.7436 24.9581 10.6616C24.5936 10.7532 24.254 10.9234 23.9696 11.1832C23.0208 12.0477 22.9427 13.5196 23.8075 14.4795L26.7986 17.8009H15.5819C16.3929 16.9938 16.8965 15.8746 16.8965 14.6387C16.8965 12.9574 15.965 11.4914 14.594 10.7338C14.801 9.37484 15.7472 5.12247 19.5832 4.27212C19.9292 4.19541 20.1476 3.85179 20.0714 3.50365C19.9952 3.15552 19.6505 2.93439 19.3084 3.01305C14.8945 3.99168 13.6818 8.44262 13.3666 10.2787C13.0777 10.2187 12.7792 10.1872 12.4729 10.1872C10.0334 10.1872 8.04943 12.1844 8.04943 14.6387C8.04943 15.8746 8.55296 16.9938 9.36399 17.8009H6.09809C4.39659 17.8009 3.0122 19.1941 3.0122 20.9071V36.691H1.64062C1.28636 36.691 1 36.9798 1 37.3357V41.3553C1 41.7112 1.28636 42 1.64062 42H41.3593C41.7136 42 42 41.7112 42 41.3553V37.3357C42 36.9798 41.7136 36.691 41.3593 36.691ZM29.6276 7.76183C30.1036 7.32795 30.7589 7.46205 31.094 7.83403C31.1632 7.91075 34.6475 11.7802 34.5565 11.6796C34.9409 12.1064 34.9089 12.7678 34.4854 13.1547C34.1555 13.4538 33.7269 13.4718 33.4265 13.3616C33.3669 13.2952 29.0485 8.5 29.3201 8.80171C29.2233 8.43102 29.3406 8.02422 29.6276 7.76183ZM26.418 9.05379C26.8409 8.66762 27.4988 8.69856 27.8832 9.12599L32.9639 14.7677C33.3483 15.1945 33.3163 15.8559 32.8922 16.2434C32.4726 16.627 31.8159 16.5934 31.4316 16.166L26.3508 10.5243C25.9613 10.0937 25.9991 9.43609 26.418 9.05379ZM28.2201 17.4592L24.7569 13.6137C24.3757 13.1908 24.3969 12.5325 24.8293 12.138C25.0196 11.9639 25.2649 11.8698 25.5237 11.8698C25.541 11.8698 25.559 11.8704 25.5769 11.8711C25.6877 11.8762 25.7947 11.8994 25.8959 11.9407L29.985 16.4806C30.0907 16.8539 29.9767 17.2652 29.6852 17.5308C29.2682 17.9138 28.6103 17.8925 28.2201 17.4592ZM9.33068 14.6381C9.33068 12.8942 10.7401 11.4759 12.4729 11.4759C14.2058 11.4759 15.6152 12.8948 15.6152 14.6381C15.6152 16.3813 14.2058 17.8003 12.4729 17.8003C10.7401 17.8003 9.33068 16.382 9.33068 14.6381ZM6.09809 19.0903C15.8798 19.0903 27.1304 19.0903 36.9012 19.0903C37.8968 19.0903 38.7065 19.9052 38.7065 20.9071V24.9383C36.4054 25.202 34.9364 26.9046 34.7327 29.6445C34.7282 29.6742 34.7263 29.7051 34.7263 29.7354C34.7263 30.5639 34.0562 31.2382 33.233 31.2382C32.4098 31.2382 31.7397 30.5639 31.7397 29.7354V27.3836C31.7397 25.6184 30.3124 24.1827 28.5584 24.1827C26.8043 24.1827 25.377 25.6191 25.377 27.3836V28.662C25.377 29.2932 24.8665 29.807 24.2399 29.807C23.6128 29.807 23.1022 29.2932 23.1022 28.662V24.8783C23.1022 23.4233 21.926 22.2396 20.4801 22.2396C19.0342 22.2396 17.858 23.4233 17.858 24.8783V26.1568C17.858 26.5906 17.507 26.9439 17.0758 26.9439C16.6447 26.9439 16.2936 26.5913 16.2936 26.1568V23.8049C16.2936 22.0398 14.8663 20.604 13.1123 20.604C11.3583 20.604 9.93094 22.0404 9.93094 23.8049V27.4352C9.93094 27.7846 9.64907 28.0683 9.30185 28.0683C8.95463 28.0683 8.67212 27.784 8.67212 27.4352V24.5715C8.67212 23.511 7.81496 22.649 6.76178 22.649H4.29345V20.9071C4.29345 19.9052 5.10256 19.0903 6.09809 19.0903ZM4.29345 23.9371H6.76242C7.10963 23.9371 7.39151 24.2214 7.39151 24.5702V27.4339C7.39151 28.4944 8.24866 29.3564 9.30249 29.3564C10.3563 29.3564 11.2128 28.4938 11.2128 27.4339V23.8036C11.2128 22.7496 12.0649 21.8921 13.1129 21.8921C14.161 21.8921 15.013 22.7496 15.013 23.8036V26.1555C15.013 27.3004 15.9381 28.232 17.0765 28.232C18.2142 28.232 19.1399 27.3004 19.1399 26.1555V24.877C19.1399 24.1331 19.7408 23.5277 20.4807 23.5277C21.2207 23.5277 21.8216 24.1331 21.8216 24.877V28.6607C21.8216 30.003 22.9068 31.0951 24.2406 31.0951C25.5743 31.0951 26.6589 30.003 26.6589 28.6607V27.3823C26.6589 26.3282 27.511 25.4708 28.559 25.4708C29.6071 25.4708 30.4591 26.3282 30.4591 27.3823V29.7341C30.4591 31.2737 31.7038 32.5263 33.2337 32.5263C34.7494 32.5263 35.9851 31.2969 36.0076 29.7767C36.0101 29.7548 36.0114 29.7322 36.0133 29.7096C36.1011 28.5073 36.5822 26.5655 38.7071 26.2386V36.6903H4.29345V23.9371ZM40.7187 40.7106H2.28125V37.9804C15.1424 37.9804 27.9459 37.9804 40.7187 37.9804V40.7106Z" stroke="#A05D45" stroke-width="0.6" mask="url(#path-1-outside-1_481_2)"/>
</g>
</svg>
