<svg width="47" height="47" viewBox="0 0 47 47" fill="none" xmlns="http://www.w3.org/2000/svg">
<g id="smiley_face_icon_143694 1" clip-path="url(#clip0_559_120)">
<g id="Group">
<path id="Vector" d="M23.7271 44.7862C35.3879 44.7862 44.8409 35.3332 44.8409 23.6724C44.8409 12.0116 35.3879 2.55859 23.7271 2.55859C12.0663 2.55859 2.61328 12.0116 2.61328 23.6724C2.61328 35.3332 12.0663 44.7862 23.7271 44.7862Z" stroke="#FFE445" stroke-width="4.28525"/>
<path id="Vector_2" d="M14.1299 29.4307C16.0493 32.8856 19.5043 35.189 23.7271 35.189C27.9498 35.189 31.4048 32.8856 33.3242 29.4307" stroke="#FFE445" stroke-width="4.28525" stroke-linecap="round"/>
</g>
<g id="Group_2">
<path id="Vector_3" d="M16.0493 23.6709C18.1695 23.6709 19.8882 21.9522 19.8882 19.832C19.8882 17.7119 18.1695 15.9932 16.0493 15.9932C13.9292 15.9932 12.2104 17.7119 12.2104 19.832C12.2104 21.9522 13.9292 23.6709 16.0493 23.6709Z" fill="#FFE445"/>
<path id="Vector_4" d="M31.4048 23.6709C33.5249 23.6709 35.2437 21.9522 35.2437 19.832C35.2437 17.7119 33.5249 15.9932 31.4048 15.9932C29.2846 15.9932 27.5659 17.7119 27.5659 19.832C27.5659 21.9522 29.2846 23.6709 31.4048 23.6709Z" fill="#FFE445"/>
</g>
</g>
<defs>
<clipPath id="clip0_559_120">
<rect width="46.0665" height="46.0665" fill="white" transform="translate(0.693848 0.638672)"/>
</clipPath>
</defs>
</svg>
