<svg width="33" height="48" viewBox="0 0 33 48" fill="none" xmlns="http://www.w3.org/2000/svg">
<g id="&#208;&#183;&#208;&#176;&#208;&#186;&#209;&#131;&#209;&#129;&#208;&#186;&#208;&#176;">
<g id="Group">
<g id="Group_2">
<g id="Group_3">
<path id="Vector" d="M32.3124 7.50011H0.687736C0.307965 7.50011 0.000244141 7.19239 0.000244141 6.81262V1.31269C0.000244141 0.817968 0.508163 0.485039 0.962183 0.682303L4.88639 2.39095L8.47051 0.691561C8.65677 0.603195 8.87311 0.603104 9.05955 0.691469L12.6319 2.38517L16.2045 0.691378C16.3909 0.603104 16.6072 0.603104 16.7936 0.691378L20.3662 2.38517L23.9389 0.691378C24.1252 0.603104 24.3416 0.603104 24.5279 0.691378L28.1131 2.39086L32.038 0.682211C32.4913 0.484947 32.9999 0.817693 32.9999 1.31269V6.81262C32.9999 7.1923 32.6921 7.50011 32.3124 7.50011ZM1.37523 6.12513H31.6249V2.36171L28.3753 3.77638C28.1934 3.85558 27.986 3.85228 27.8064 3.76722L24.2333 2.07351L20.6607 3.76722C20.4744 3.85549 20.2581 3.85549 20.0717 3.76722L16.4989 2.07351L12.9264 3.76731C12.7399 3.85558 12.5236 3.85558 12.3373 3.76731L8.76494 2.07351L5.19291 3.76722C5.01362 3.85247 4.80609 3.85577 4.62395 3.77647L1.37523 2.3618V6.12513Z" fill="#A05D45"/>
</g>
<g id="Group_4">
<path id="Vector_2" d="M0.000183105 46.6872V41.1872C0.000183105 40.8075 0.307904 40.4998 0.687675 40.4998H32.3123C32.6921 40.4998 32.9998 40.8075 32.9998 41.1872V46.6872C32.9998 47.1816 32.4918 47.5151 32.0379 47.3176L28.113 45.6089L24.5279 47.3084C24.3415 47.3967 24.1252 47.3967 23.9388 47.3084L20.3662 45.6147L16.7934 47.3085C16.607 47.3969 16.3906 47.3967 16.2044 47.3085L12.6319 45.6147L9.0594 47.3085C8.87295 47.3969 8.65662 47.3968 8.47036 47.3084L4.88623 45.609L0.96203 47.3177C0.508377 47.5148 0.000183105 47.182 0.000183105 46.6872ZM20.6607 44.2326L24.2334 45.9264L27.8064 44.2326C27.9859 44.1476 28.1934 44.1442 28.3753 44.2234L31.6248 45.6381V41.8747H1.37517V45.6381L4.62389 44.2235C4.80603 44.1441 5.01346 44.1475 5.19285 44.2327L8.76488 45.9264L12.3374 44.2327C12.5237 44.1444 12.74 44.1444 12.9264 44.2327L16.499 45.9264L20.0717 44.2327C20.2545 44.146 20.4706 44.1425 20.6607 44.2326Z" fill="#A05D45"/>
</g>
<g id="Group_5">
<path id="Vector_3" d="M31.6739 41.4423L30.299 38.0049C30.2057 37.772 30.2674 39.5568 30.2498 10.2499C30.2498 10.0072 30.2516 10.1581 31.6739 6.55718C31.8148 6.20445 32.2153 6.03313 32.5676 6.17411C32.9201 6.31518 33.0916 6.71521 32.9507 7.06776L31.6248 10.3823V37.6171L32.9507 40.9317C33.0916 41.2842 32.9201 41.6842 32.5676 41.8253C32.2135 41.967 31.8143 41.7932 31.6739 41.4423Z" fill="#A05D45"/>
</g>
<g id="Group_6">
<path id="Vector_4" d="M0.432401 41.8254C0.0798557 41.6843 -0.09165 41.2843 0.0493316 40.9317L1.37518 37.6171V10.3822L0.0493316 7.06771C-0.09165 6.71516 0.0798557 6.31513 0.432401 6.17406C0.784672 6.03317 1.18507 6.20449 1.32605 6.55713C2.76914 10.2106 2.75017 10.0147 2.75017 10.2499C2.73257 39.5434 2.79426 37.772 2.70103 38.0048L1.32605 41.4423C1.18553 41.7937 0.785864 41.9667 0.432401 41.8254Z" fill="#A05D45"/>
</g>
<g id="Group_7">
<path id="Vector_5" d="M16.5001 34.9997C10.4347 34.9997 5.50018 30.0652 5.50018 23.9999C5.50018 17.9345 10.4347 13 16.5001 13C22.5654 13 27.4999 17.9345 27.4999 23.9999C27.4999 30.0652 22.5654 34.9997 16.5001 34.9997ZM16.5001 14.375C11.1929 14.375 6.87517 18.6927 6.87517 23.9999C6.87517 29.307 11.1929 33.6248 16.5001 33.6248C21.8072 33.6248 26.1249 29.307 26.1249 23.9999C26.1249 18.6927 21.8072 14.375 16.5001 14.375Z" fill="#A05D45"/>
</g>
<g id="Group_8">
<path id="Vector_6" d="M30.9373 10.9375H2.06267C1.6829 10.9375 1.37518 10.6298 1.37518 10.25C1.37518 9.87022 1.6829 9.5625 2.06267 9.5625H30.9373C31.3171 9.5625 31.6248 9.87022 31.6248 10.25C31.6248 10.6298 31.3171 10.9375 30.9373 10.9375Z" fill="#A05D45"/>
</g>
<g id="Group_9">
<path id="Vector_7" d="M30.9373 38.4372H2.06267C1.6829 38.4372 1.37518 38.1295 1.37518 37.7497C1.37518 37.37 1.6829 37.0623 2.06267 37.0623H30.9373C31.3171 37.0623 31.6248 37.37 31.6248 37.7497C31.6248 38.1295 31.3171 38.4372 30.9373 38.4372Z" fill="#A05D45"/>
</g>
<g id="Group_10">
<path id="Vector_8" d="M15.8469 30.0713C14.1112 30.0713 12.379 29.4086 11.0608 28.0725C9.79423 26.7872 10.5409 24.6296 12.3239 24.3821C13.4827 24.2212 14.5334 23.6978 15.3626 22.8685V22.8684C16.1921 22.039 16.7154 20.9884 16.8763 19.8299C17.1231 18.0509 19.2726 17.3006 20.5488 18.5491C20.5914 18.6129 22.604 20.3318 22.5703 23.4283C22.53 27.131 19.5246 30.0713 15.8469 30.0713ZM16.335 23.8407C15.2923 24.8835 13.9707 25.5418 12.513 25.7441C11.8422 25.8372 11.5705 26.6308 12.0399 27.1071C13.0587 28.1405 14.4069 28.6831 15.7911 28.6975C18.7374 28.7281 21.1631 26.3815 21.1955 23.4134C21.2222 20.9575 19.6212 19.5827 19.5875 19.5322C19.1166 19.0714 18.3302 19.3558 18.2383 20.0189C18.036 21.4765 17.3778 22.7979 16.335 23.8407Z" fill="#A05D45"/>
</g>
<g id="Group_11">
<path id="Vector_9" d="M30.9374 32.2498H23.5106C23.1308 32.2498 22.8231 31.9421 22.8231 31.5623C22.8231 31.1825 23.1308 30.8748 23.5106 30.8748H30.2499V17.125H23.5106C23.1308 17.125 22.8231 16.8173 22.8231 16.4375C22.8231 16.0577 23.1308 15.75 23.5106 15.75H30.9374C31.3171 15.75 31.6248 16.0577 31.6248 16.4375V31.5623C31.6248 31.942 31.3171 32.2498 30.9374 32.2498Z" fill="#A05D45"/>
</g>
<g id="Group_12">
<path id="Vector_10" d="M9.48942 32.2498H2.06267C1.6829 32.2498 1.37518 31.9421 1.37518 31.5623V16.4375C1.37518 16.0577 1.6829 15.75 2.06267 15.75H9.48942C9.86919 15.75 10.1769 16.0577 10.1769 16.4375C10.1769 16.8173 9.86919 17.125 9.48942 17.125H2.75017V30.8748H9.48942C9.86919 30.8748 10.1769 31.1825 10.1769 31.5623C10.1769 31.9421 9.8691 32.2498 9.48942 32.2498Z" fill="#A05D45"/>
</g>
</g>
</g>
</g>
</svg>
