<svg width="53" height="40" viewBox="0 0 53 40" fill="none" xmlns="http://www.w3.org/2000/svg">
<g id="&#208;&#186;&#208;&#176;&#208;&#178;&#208;&#176;">
<path id="Vector" d="M51.1873 15.6497C50.3986 15.0133 49.4832 14.5518 48.5018 14.296C47.5205 14.0403 46.4958 13.996 45.496 14.1662L43.4471 14.4801V12.4335C43.4471 9.74488 37.0384 8.60534 31.9349 8.12273C32.099 7.70481 32.1818 7.25958 32.1791 6.81076C32.1791 4.93653 30.9293 3.99941 29.9255 3.24971C28.9668 2.53188 28.4231 2.08206 28.4231 1.18805C28.4231 0.939515 28.3241 0.701156 28.148 0.525412C27.9719 0.349669 27.7331 0.250937 27.4841 0.250937C27.235 0.250937 26.9962 0.349669 26.8201 0.525412C26.644 0.701156 26.5451 0.939515 26.5451 1.18805C26.5451 3.06229 27.7949 3.99941 28.7987 4.7491C29.7574 5.46693 30.3011 5.91675 30.3011 6.81076C30.3068 7.2347 30.1491 7.64464 29.8607 7.95592C28.6597 7.87439 27.624 7.82847 26.8934 7.80411H26.4005C26.4951 7.48139 26.5438 7.147 26.5451 6.81076C26.5451 4.93653 25.2962 3.99941 24.2915 3.24971C23.3318 2.53188 22.789 2.08206 22.789 1.18805C22.789 0.939515 22.6901 0.701156 22.514 0.525412C22.3379 0.349669 22.0991 0.250937 21.85 0.250937C21.601 0.250937 21.3622 0.349669 21.1861 0.525412C21.01 0.701156 20.911 0.939515 20.911 1.18805C20.911 3.06229 22.1609 3.99941 23.1646 4.7491C24.1243 5.46693 24.6671 5.91675 24.6671 6.81076C24.6703 7.1693 24.554 7.51874 24.3365 7.80411H20.7683C20.863 7.48109 20.9117 7.14638 20.9129 6.80982C20.9129 4.93559 19.664 3.99847 18.6593 3.24878C17.6996 2.53094 17.1569 2.08113 17.1569 1.18712C17.1569 0.938579 17.058 0.700218 16.8819 0.524475C16.7058 0.348731 16.4669 0.25 16.2179 0.25C15.9689 0.25 15.73 0.348731 15.5539 0.524475C15.3778 0.700218 15.2789 0.938579 15.2789 1.18712C15.2789 3.06135 16.5287 3.99847 17.5325 4.74817C18.4922 5.466 19.0349 5.91581 19.0349 6.80982C19.0425 7.20335 18.9075 7.58638 18.6546 7.88845C13.6216 8.16958 4.01085 9.14044 4.01085 12.4325V23.0941C4.01886 24.0905 4.11692 25.0841 4.30382 26.0629C3.59609 26.0728 2.901 26.2515 2.27651 26.5839C1.9373 26.772 1.62835 27.0099 1.36004 27.2896C-0.729242 29.4721 -0.00808632 33.6386 2.99954 36.776C3.76137 37.6443 4.68746 38.3539 5.72469 38.8642C6.76193 39.3744 7.8899 39.6753 9.04391 39.7495C9.82557 39.7609 10.5969 39.5707 11.2834 39.1976C11.3058 39.1815 11.3265 39.1633 11.3454 39.1432C11.5295 39.236 11.7203 39.3146 11.9163 39.3784C12.2847 39.4956 12.6688 39.5559 13.0553 39.5574C13.9101 39.547 14.7391 39.2636 15.4207 38.7487C17.0603 39.2794 18.7732 39.5501 20.4969 39.5508H26.9573C29.1647 39.5544 31.3501 39.1137 33.383 38.2552C35.4159 37.3967 37.2544 36.1379 38.7887 34.5541C38.8598 34.5762 38.9333 34.5894 39.0075 34.5935C39.0553 34.5934 39.103 34.5897 39.1503 34.5822C47.0792 33.3696 52.8334 27.9118 52.8334 21.605V19.0233C52.8221 18.3752 52.6688 17.7374 52.3845 17.1547C52.1002 16.5719 51.6916 16.0582 51.1873 15.6497ZM16.2902 9.93324C15.9645 10.2628 15.7074 10.6533 15.5335 11.0824C15.3596 11.5115 15.2725 11.9706 15.277 12.4335C15.277 12.682 15.3759 12.9204 15.552 13.0961C15.7281 13.2719 15.967 13.3706 16.216 13.3706C16.4651 13.3706 16.7039 13.2719 16.88 13.0961C17.0561 12.9204 17.155 12.682 17.155 12.4335C17.155 11.5395 17.6987 11.0896 18.6574 10.3718C18.9213 10.1741 19.2011 9.96229 19.4715 9.72614C19.8321 9.70927 20.1871 9.69146 20.5627 9.67834H22.1825C21.7837 10.0184 21.4637 10.441 21.2448 10.9167C21.026 11.3924 20.9133 11.91 20.9148 12.4335C20.9148 12.682 21.0137 12.9204 21.1898 13.0961C21.3659 13.2719 21.6048 13.3706 21.8538 13.3706C22.1028 13.3706 22.3417 13.2719 22.5178 13.0961C22.6939 12.9204 22.7928 12.682 22.7928 12.4335C22.7928 11.5395 23.3365 11.0896 24.2952 10.3718C24.5769 10.1619 24.8736 9.93324 25.16 9.67834H26.8643C27.178 9.68865 27.4709 9.70458 27.7742 9.7177C27.3867 10.0566 27.0767 10.4746 26.8651 10.9435C26.6535 11.4124 26.5454 11.9211 26.5479 12.4353C26.5479 12.6839 26.6468 12.9222 26.8229 13.098C26.999 13.2737 27.2378 13.3725 27.4869 13.3725C27.7359 13.3725 27.9748 13.2737 28.1509 13.098C28.327 12.9222 28.4259 12.6839 28.4259 12.4353C28.4259 11.5413 28.9696 11.0915 29.9283 10.3737C30.1321 10.2219 30.3443 10.0579 30.5556 9.88451C37.7145 10.4412 41.2292 11.7475 41.5597 12.4147C41.0517 13.4456 34.7557 15.2439 23.7309 15.2439C12.675 15.2439 6.37151 13.4334 5.90294 12.4494C6.2485 11.7616 9.58102 10.5124 16.2902 9.93324ZM7.96875 29.2276C7.8092 30.0157 7.72961 30.8178 7.73118 31.6219C7.73118 31.7821 7.7387 31.9396 7.74527 32.097C7.44479 32.0333 7.15651 31.9949 6.88608 31.963C6.51408 31.9636 6.14599 31.8873 5.80499 31.7389C5.464 31.5905 5.15749 31.3733 4.90478 31.1009C4.35638 30.532 4.05302 29.7714 4.05968 28.982C4.02919 28.6414 3.97902 28.3029 3.90944 27.9681C5.3758 27.8393 6.834 28.2918 7.96875 29.2276ZM4.3564 35.4838C2.50563 33.5514 1.69433 31.0681 2.22674 29.4665C2.30357 30.567 2.76945 31.6045 3.54135 32.3941C4.35327 33.263 5.47669 33.7761 6.66635 33.8213C7.13175 33.8409 7.58774 33.9584 8.00443 34.1662C8.27257 35.4955 8.85136 36.7429 9.6937 37.8069C8.17627 38.1255 6.03159 37.2268 4.3564 35.4838ZM12.3107 36.4415C12.1136 36.6902 11.9299 36.9492 11.7605 37.2174C10.4947 36.2803 9.60919 34.065 9.60919 31.62C9.60919 28.8087 10.7604 26.3722 12.26 25.7237C11.4894 26.6111 11.0715 27.7497 11.0853 28.9239C11.0757 30.1243 11.5119 31.2858 12.3098 32.1842C12.849 32.7616 13.1488 33.5216 13.1488 34.311C13.1488 35.1003 12.849 35.8603 12.3098 36.4377L12.3107 36.4415ZM13.8479 37.5201C14.6163 36.614 15.0341 35.4632 15.0257 34.2762C15.0172 33.0892 14.5831 31.9444 13.8018 31.0493C13.263 30.4721 12.9634 29.7124 12.9634 28.9235C12.9634 28.1345 13.263 27.3749 13.8018 26.7976C13.9954 26.5524 14.1762 26.2975 14.3436 26.0339C15.6113 26.971 16.5034 29.1732 16.5034 31.62C16.5024 34.4332 15.3568 36.8819 13.8479 37.5201ZM26.9582 37.6804H20.4979C19.2714 37.6801 18.0499 37.5259 16.8621 37.2212C17.8975 35.5394 18.4247 33.5952 18.3804 31.6219C18.3804 27.8322 16.6611 24.6422 14.1981 23.8616C13.8296 23.7436 13.4451 23.6829 13.0582 23.6817C11.1341 23.6817 9.48337 25.1342 8.55093 27.3552C7.83726 26.8997 7.06148 26.5494 6.24756 26.315C6.0102 25.26 5.89022 24.182 5.8898 23.1007V14.6479C10.6834 17.0844 23.0867 17.1219 23.7356 17.1219C24.3844 17.1219 36.7802 17.0853 41.5766 14.6498V23.0941C41.5865 25.4203 41.0296 27.714 39.954 29.7776C38.7287 32.1628 36.8663 34.1632 34.5728 35.5579C32.2793 36.9526 29.644 37.6872 26.9582 37.6804ZM50.9592 21.6088C50.9592 26.538 46.6773 30.8722 40.5663 32.3856C40.9509 31.8265 41.3008 31.2444 41.6142 30.6426C42.8295 28.312 43.4585 25.7214 43.4471 23.0941V16.3759L45.7796 16.0189C46.5119 15.8935 47.2623 15.9224 47.9828 16.1036C48.7032 16.2849 49.3777 16.6145 49.9629 17.0713C50.261 17.305 50.5045 17.6006 50.6765 17.9377C50.8486 18.2748 50.945 18.6452 50.9592 19.0233V21.6088Z" fill="#A05D45"/>
</g>
</svg>
