<svg width="1536" height="1256" viewBox="0 0 1536 1256" fill="none" xmlns="http://www.w3.org/2000/svg">
<mask id="mask0_247_70" style="mask-type:alpha" maskUnits="userSpaceOnUse" x="-22" y="0" width="1651" height="1247">
<path d="M1407.8 1065.83C1394.66 1056.61 1374.95 1062.31 1363.41 1078.39C1351.87 1094.48 1353.47 1115.1 1366.56 1124.41C1379.65 1133.71 1399.39 1127.97 1410.93 1111.89C1422.47 1095.8 1420.91 1075.09 1407.8 1065.83Z" fill="#EF9C07"/>
<path d="M1466.04 1096.9C1451.06 1091.13 1433.16 1101.43 1426.04 1119.89C1418.93 1138.36 1425.3 1158 1440.27 1163.76C1455.25 1169.53 1473.15 1159.23 1480.27 1140.77C1487.38 1122.31 1481.01 1102.66 1466.04 1096.9Z" fill="#EF9C07"/>
<path d="M1416.16 1025.91C1416.69 1034.81 1419.49 1043.42 1424.3 1050.93C1429.11 1058.43 1435.76 1064.58 1443.62 1068.77C1451.48 1072.97 1460.29 1075.08 1469.2 1074.9C1478.11 1074.73 1486.83 1072.27 1494.52 1067.76L1526.33 1049.17C1531.19 1046.27 1535.17 1042.11 1537.85 1037.13C1540.35 1032.38 1541.56 1027.06 1541.36 1021.69C1541.16 1016.33 1539.56 1011.12 1536.72 1006.57C1533.87 1002.02 1529.88 998.305 1525.15 995.786C1520.41 993.267 1515.1 992.037 1509.74 992.216C1501.92 992.51 1494.17 990.724 1487.27 987.039C1480.37 983.354 1474.57 977.904 1470.47 971.243C1467.64 966.688 1463.66 962.958 1458.93 960.424C1454.21 957.891 1448.9 956.644 1443.54 956.808C1438.18 956.972 1432.95 958.54 1428.39 961.357C1423.82 964.174 1420.07 968.14 1417.51 972.86C1414.86 977.858 1413.62 983.484 1413.91 989.133L1416.16 1025.91Z" fill="#EF9C07"/>
<path d="M1512.01 1140.9C1498.43 1136.42 1491.9 1119.26 1497.36 1102.54C1502.87 1085.83 1518.33 1075.95 1531.87 1080.41C1545.41 1084.86 1551.89 1102.1 1546.48 1118.74C1541.06 1135.38 1525.6 1145.37 1512.01 1140.9Z" fill="#EF9C07"/>
<path d="M1385.67 1042.89C1374.71 1056.91 1356.92 1060.85 1345.64 1052.05C1334.37 1043.24 1334.07 1024.95 1344.89 1011.08C1355.71 997.218 1373.57 993.141 1384.87 1001.9C1396.17 1010.66 1396.63 1028.87 1385.67 1042.89Z" fill="#EF9C07"/>
<path d="M405.74 695.123C396.544 681.971 376.072 680.588 359.727 691.76C343.381 702.932 337.846 722.858 346.965 736.078C356.084 749.299 376.595 750.648 392.94 739.476C409.286 728.303 414.897 708.31 405.74 695.123Z" fill="#EF9C07"/>
<path d="M449.852 744.225C437.75 733.69 417.404 737.245 404.407 752.167C391.41 767.088 390.685 787.724 402.787 798.26C414.888 808.795 435.235 805.24 448.231 790.319C461.228 775.397 461.953 754.761 449.852 744.225Z" fill="#EF9C07"/>
<path d="M427.236 660.46C424.695 669.008 424.387 678.061 426.341 686.757C428.295 695.453 432.446 703.5 438.398 710.131C444.349 716.762 451.903 721.755 460.338 724.634C468.773 727.512 477.808 728.18 486.579 726.574L522.825 719.974C528.383 718.916 533.549 716.366 537.77 712.597C541.743 708.988 544.7 704.4 546.345 699.292C547.991 694.185 548.267 688.736 547.147 683.491C546.026 678.246 543.549 673.388 539.961 669.403C536.373 665.419 531.801 662.446 526.702 660.783C519.255 658.387 512.578 654.058 507.353 648.238C502.129 642.417 498.543 635.313 496.963 627.651C495.858 622.402 493.395 617.537 489.82 613.541C486.244 609.546 481.681 606.559 476.587 604.881C471.493 603.203 466.047 602.891 460.791 603.977C455.536 605.063 450.657 607.509 446.641 611.071C442.44 614.862 439.349 619.724 437.699 625.135L427.236 660.46Z" fill="#EF9C07"/>
<path d="M478.022 801.286C466.783 792.437 466.517 774.083 477.365 760.229C488.247 746.414 506.155 742.415 517.36 751.225C528.565 760.035 528.754 778.458 517.982 792.243C507.21 806.029 489.26 810.134 478.022 801.286Z" fill="#EF9C07"/>
<path d="M392.784 665.998C377.692 675.429 359.625 673.053 352.037 660.927C344.45 648.801 350.421 631.504 365.328 622.172C380.234 612.84 398.415 615.113 406.041 627.205C413.666 639.297 407.877 656.568 392.784 665.998Z" fill="#EF9C07"/>
<path d="M109.767 1044.83C111.793 1060.74 129.275 1071.49 148.94 1069.2C168.606 1066.9 182.771 1051.84 180.844 1035.89C178.917 1019.95 161.386 1009.22 141.72 1011.51C122.054 1013.8 107.79 1028.89 109.767 1044.83Z" fill="#EF9C07"/>
<path d="M93.5421 980.844C99.358 995.798 119.024 1002.11 137.468 994.942C155.912 987.774 166.149 969.841 160.333 954.887C154.517 939.933 134.851 933.621 116.407 940.789C97.9633 947.956 87.7263 965.89 93.5421 980.844Z" fill="#EF9C07"/>
<path d="M74.6187 1065.52C80.8426 1059.13 85.325 1051.26 87.6381 1042.65C89.9512 1034.05 90.0177 1024.99 87.8312 1016.35C85.6448 1007.72 81.2784 999.783 75.1488 993.313C69.0193 986.843 61.3313 982.051 52.8188 979.395L17.6598 968.386C12.2478 966.739 6.48831 966.595 0.998894 967.969C-4.19659 969.317 -8.94753 972.004 -12.7791 975.761C-16.6107 979.518 -19.3886 984.213 -20.8353 989.378C-22.282 994.542 -22.3468 999.995 -21.0232 1005.19C-19.6995 1010.39 -17.0339 1015.14 -13.2926 1018.99C-7.81278 1024.57 -3.91438 1031.51 -1.99509 1039.09C-0.0758114 1046.67 -0.204341 1054.63 -2.36757 1062.15C-3.82998 1067.31 -3.91133 1072.76 -2.60351 1077.96C-1.29569 1083.16 1.35549 1087.93 5.08505 1091.78C8.81463 1095.63 13.4919 1098.44 18.6495 1099.92C23.8071 1101.41 29.2642 1101.51 34.4755 1100.22C39.9576 1098.82 44.9548 1095.95 48.9314 1091.93L74.6187 1065.52Z" fill="#EF9C07"/>
<path d="M95.1316 917.228C100.968 930.287 92.6695 946.661 76.6241 953.882C60.5662 961.054 42.8523 956.269 37.0286 943.259C31.2048 930.25 39.6022 913.851 55.5485 906.655C71.4948 899.458 89.2953 904.169 95.1316 917.228Z" fill="#EF9C07"/>
<path d="M107.695 1076.63C125.442 1075.3 140.333 1085.81 141.412 1100.07C142.492 1114.33 129.163 1126.87 111.627 1128.2C94.0905 1129.53 79.0513 1119.07 77.9221 1104.82C76.793 1090.57 89.9482 1077.97 107.695 1076.63Z" fill="#EF9C07"/>
<path d="M917.517 138.023C902.119 142.544 894.279 161.506 899.655 180.561C905.032 199.616 922.152 211.217 937.59 206.79C953.029 202.363 960.848 183.353 955.472 164.298C950.095 145.243 932.935 133.549 917.517 138.023Z" fill="#EF9C07"/>
<path d="M978.123 111.873C964.278 119.983 961.159 140.401 971.157 157.477C981.154 174.554 1000.48 181.822 1014.33 173.712C1028.17 165.602 1031.29 145.184 1021.29 128.108C1011.29 111.032 991.967 103.763 978.123 111.873Z" fill="#EF9C07"/>
<path d="M891.519 106.595C898.81 111.729 907.292 114.909 916.157 115.83C925.022 116.751 933.973 115.383 942.156 111.856C950.339 108.33 957.48 102.763 962.898 95.6861C968.316 88.6094 971.831 80.2597 973.105 71.4341L978.409 34.9756C979.178 29.371 978.409 23.6613 976.183 18.4587C974.029 13.5422 970.624 9.27663 966.307 6.08824C961.991 2.89984 956.915 0.90032 951.587 0.289557C946.258 -0.321218 940.864 0.478171 935.943 2.60778C931.022 4.73738 926.747 8.12261 923.545 12.4251C918.899 18.72 912.667 23.6675 905.484 26.7631C898.301 29.8587 890.424 30.9915 882.658 30.0459C877.332 29.419 871.935 30.2019 867.008 32.3166C862.08 34.4312 857.795 37.8034 854.58 42.0962C851.364 46.3889 849.332 51.4519 848.686 56.779C848.039 62.1061 848.802 67.5107 850.896 72.4527C853.15 77.6434 856.772 82.1237 861.374 85.4131L891.519 106.595Z" fill="#EF9C07"/>
<path d="M1041.19 103.37C1029.22 111.201 1011.74 105.599 1002.07 90.8998C992.441 76.1799 994.362 57.9318 1006.29 50.1217C1018.21 42.3117 1035.73 48.0068 1045.36 62.6126C1054.99 77.2183 1053.16 95.5402 1041.19 103.37Z" fill="#EF9C07"/>
<path d="M885.781 141.014C889.906 158.326 881.893 174.692 867.98 178.016C854.068 181.34 839.578 170.165 835.487 153.061C831.396 135.956 839.349 119.45 853.241 116.078C867.133 112.707 881.656 123.702 885.781 141.014Z" fill="#EF9C07"/>
<path d="M157.202 223.801C169.19 234.47 189.427 231.081 202.745 216.43C216.063 201.78 216.84 181.115 204.91 170.362C192.98 159.609 172.714 163.041 159.396 177.691C146.078 192.341 145.243 213.09 157.202 223.801Z" fill="#EF9C07"/>
<path d="M102.929 186.233C117.139 193.684 136.111 185.519 145.304 167.996C154.497 150.474 150.43 130.229 136.219 122.778C122.009 115.328 103.037 123.493 93.844 141.015C84.651 158.538 88.7185 178.783 102.929 186.233Z" fill="#EF9C07"/>
<path d="M144.306 262.496C144.801 253.593 143.007 244.713 139.095 236.705C135.182 228.697 129.282 221.828 121.958 216.754C114.634 211.679 106.13 208.569 97.2579 207.719C88.3858 206.87 79.4419 208.31 71.2801 211.901L37.5434 226.706C32.3814 229.021 27.9451 232.697 24.7101 237.34C21.6798 241.77 19.8642 246.917 19.4447 252.267C19.0253 257.617 20.0166 262.982 22.3198 267.825C24.6229 272.669 28.1572 276.822 32.5693 279.869C36.9814 282.915 42.1167 284.75 47.4621 285.188C55.2621 285.797 62.7591 288.464 69.1884 292.918C75.6176 297.373 80.749 303.455 84.0589 310.544C86.3474 315.394 89.869 319.558 94.2717 322.618C98.6745 325.679 103.804 327.529 109.148 327.983C114.492 328.438 119.863 327.481 124.725 325.209C129.586 322.937 133.767 319.428 136.851 315.035C140.061 310.375 141.944 304.93 142.298 299.284L144.306 262.496Z" fill="#EF9C07"/>
<path d="M62.3247 137.236C75.3053 143.245 79.8093 161.04 72.4597 177.027C65.0681 192.985 48.5707 201.018 35.6321 195.038C22.6935 189.058 18.2477 171.179 25.5391 155.276C32.8305 139.373 49.3441 131.227 62.3247 137.236Z" fill="#EF9C07"/>
<path d="M176.542 249.14C189.045 236.474 207.171 234.607 217.357 244.649C227.544 254.691 225.735 272.9 213.391 285.427C201.048 297.954 182.834 299.947 172.618 289.947C162.403 279.947 164.04 261.805 176.542 249.14Z" fill="#EF9C07"/>
<path d="M1178.92 567.416C1194.76 564.806 1204.85 546.941 1201.84 527.372C1198.82 507.804 1183.25 494.203 1167.38 496.716C1151.52 499.228 1141.44 517.143 1144.45 536.711C1147.47 556.279 1163.08 569.978 1178.92 567.416Z" fill="#EF9C07"/>
<path d="M1115.58 585.984C1130.31 579.622 1135.9 559.737 1128.06 541.569C1120.21 523.401 1101.92 513.831 1087.19 520.193C1072.46 526.555 1066.87 546.441 1074.71 564.608C1082.56 582.776 1100.85 592.346 1115.58 585.984Z" fill="#EF9C07"/>
<path d="M1200.9 601.779C1194.29 595.794 1186.25 591.605 1177.57 589.61C1168.88 587.615 1159.83 587.882 1151.28 590.385C1142.73 592.887 1134.96 597.543 1128.72 603.906C1122.48 610.27 1117.97 618.129 1115.63 626.733L1105.93 662.273C1104.48 667.742 1104.55 673.503 1106.12 678.938C1107.66 684.081 1110.52 688.73 1114.42 692.42C1118.31 696.111 1123.11 698.714 1128.32 699.97C1133.53 701.226 1138.99 701.09 1144.13 699.576C1149.27 698.062 1153.93 695.223 1157.63 691.343C1163.01 685.661 1169.8 681.51 1177.31 679.313C1184.81 677.116 1192.77 676.952 1200.36 678.837C1205.57 680.109 1211.02 679.989 1216.17 678.491C1221.32 676.993 1225.98 674.168 1229.7 670.299C1233.41 666.43 1236.05 661.653 1237.34 656.444C1238.63 651.236 1238.53 645.778 1237.06 640.618C1235.45 635.191 1232.4 630.303 1228.24 626.477L1200.9 601.779Z" fill="#EF9C07"/>
<path d="M1051.95 586.737C1064.79 580.424 1081.46 588.114 1089.26 603.883C1097.02 619.666 1092.89 637.544 1080.1 643.842C1067.32 650.141 1050.62 642.353 1042.84 626.682C1035.06 611.011 1039.12 593.049 1051.95 586.737Z" fill="#EF9C07"/>
<path d="M1210.79 568.316C1208.8 550.63 1218.75 535.363 1232.97 533.759C1247.18 532.156 1260.2 545.014 1262.18 562.489C1264.15 579.965 1254.25 595.379 1240.05 597.032C1225.85 598.685 1212.77 586.002 1210.79 568.316Z" fill="#EF9C07"/>
<path d="M822.191 1129.78C837.58 1134.33 854.451 1122.66 860.268 1103.73C866.085 1084.81 857.993 1065.77 842.621 1061.12C827.25 1056.47 810.37 1068.2 804.553 1087.12C798.736 1106.05 806.811 1125.18 822.191 1129.78Z" fill="#EF9C07"/>
<path d="M757.091 1118.88C773.121 1119.58 786.814 1104.12 787.676 1084.35C788.538 1064.58 776.242 1047.99 760.211 1047.29C744.181 1046.6 730.488 1062.06 729.626 1081.83C728.764 1101.6 741.061 1118.19 757.091 1118.88Z" fill="#EF9C07"/>
<path d="M826.989 1170.29C823.648 1162.02 818.246 1154.75 811.297 1149.17C804.349 1143.58 796.087 1139.88 787.299 1138.4C778.512 1136.93 769.493 1137.73 761.103 1140.74C752.713 1143.75 745.232 1148.86 739.375 1155.58L715.146 1183.33C711.46 1187.63 709.01 1192.84 708.058 1198.42C707.201 1203.72 707.749 1209.15 709.646 1214.17C711.543 1219.19 714.723 1223.62 718.869 1227.02C723.014 1230.43 727.98 1232.68 733.269 1233.56C738.558 1234.44 743.986 1233.91 749.01 1232.04C756.327 1229.27 764.247 1228.49 771.96 1229.78C779.674 1231.08 786.906 1234.4 792.918 1239.41C797.053 1242.82 802.012 1245.09 807.298 1245.99C812.585 1246.88 818.014 1246.37 823.044 1244.51C828.073 1242.65 832.526 1239.5 835.959 1235.37C839.391 1231.24 841.681 1226.29 842.602 1221C843.524 1215.42 842.91 1209.69 840.828 1204.43L826.989 1170.29Z" fill="#EF9C07"/>
<path d="M699.495 1091.82C713.799 1091.74 725.448 1105.92 725.601 1123.52C725.703 1141.11 714.193 1155.4 699.939 1155.49C685.686 1155.59 674.054 1141.3 673.884 1123.8C673.714 1106.31 685.191 1091.91 699.495 1091.82Z" fill="#EF9C07"/>
<path d="M850.476 1144.48C856.4 1127.7 872.008 1118.29 885.5 1123.05C898.991 1127.8 905.104 1145.05 899.265 1161.64C893.426 1178.23 877.792 1187.78 864.292 1183.08C850.792 1178.38 844.553 1161.26 850.476 1144.48Z" fill="#EF9C07"/>
<path d="M1544.99 246.646C1560.8 243.866 1570.7 225.893 1567.47 206.358C1564.25 186.824 1548.53 173.39 1532.69 176.073C1516.86 178.755 1506.97 196.776 1510.19 216.311C1513.42 235.846 1529.17 249.377 1544.99 246.646Z" fill="#EF9C07"/>
<path d="M1481.85 265.891C1496.51 259.372 1501.88 239.427 1493.85 221.345C1485.81 203.262 1467.41 193.889 1452.75 200.409C1438.09 206.928 1432.72 226.872 1440.76 244.955C1448.79 263.037 1467.19 272.411 1481.85 265.891Z" fill="#EF9C07"/>
<path d="M1567.33 280.771C1560.66 274.857 1552.58 270.754 1543.87 268.852C1535.17 266.951 1526.12 267.314 1517.59 269.909C1509.07 272.503 1501.35 277.241 1495.18 283.671C1489.01 290.101 1484.59 298.008 1482.34 306.637L1473.01 342.28C1471.63 347.764 1471.75 353.524 1473.39 358.942C1474.98 364.067 1477.89 368.685 1481.83 372.334C1485.76 375.983 1490.58 378.534 1495.81 379.734C1501.04 380.934 1506.49 380.739 1511.61 379.171C1516.74 377.602 1521.37 374.713 1525.03 370.793C1530.35 365.054 1537.09 360.831 1544.57 358.553C1552.05 356.276 1560.01 356.027 1567.62 357.83C1572.84 359.046 1578.3 358.868 1583.43 357.315C1588.56 355.761 1593.19 352.887 1596.87 348.978C1600.54 345.07 1603.12 340.264 1604.36 335.042C1605.59 329.82 1605.44 324.364 1603.9 319.22C1602.24 313.811 1599.14 308.955 1594.93 305.174L1567.33 280.771Z" fill="#EF9C07"/>
<path d="M1418.23 267.326C1431 260.876 1447.75 268.387 1455.72 284.071C1463.65 299.77 1459.71 317.691 1446.99 324.126C1434.28 330.562 1417.5 322.953 1409.55 307.366C1401.61 291.78 1405.47 273.776 1418.23 267.326Z" fill="#EF9C07"/>
<path d="M1576.86 247.203C1574.69 229.54 1584.47 214.167 1598.67 212.411C1612.86 210.655 1626.02 223.373 1628.18 240.826C1630.35 258.28 1620.61 273.799 1606.43 275.604C1592.25 277.409 1579.04 264.867 1576.86 247.203Z" fill="#EF9C07"/>
</mask>
<g mask="url(#mask0_247_70)">
<rect y="12" width="1536" height="1244" fill="url(#paint0_linear_247_70)"/>
</g>
<defs>
<linearGradient id="paint0_linear_247_70" x1="768" y1="12" x2="768" y2="1256" gradientUnits="userSpaceOnUse">
<stop stop-color="#D9D9D9" stop-opacity="0"/>
<stop offset="0.271875" stop-color="#EF9C07"/>
<stop offset="1" stop-color="#EF9C07" stop-opacity="0.904412"/>
</linearGradient>
</defs>
</svg>
