<svg width="1920" height="9530" viewBox="0 0 1920 9530" fill="none" xmlns="http://www.w3.org/2000/svg">
<mask id="mask0_551_29" style="mask-type:alpha" maskUnits="userSpaceOnUse" x="-93" y="0" width="2129" height="9519">
<path d="M1821.98 6054.13C1805.56 6042.6 1780.92 6049.72 1766.5 6069.83C1752.07 6089.94 1754.08 6115.71 1770.44 6127.34C1786.8 6138.98 1811.47 6131.8 1825.9 6111.69C1840.32 6091.59 1838.37 6065.7 1821.98 6054.13Z" fill="#EF9C07"/>
<path d="M1894.78 6092.96C1876.06 6085.75 1853.68 6098.62 1844.79 6121.7C1835.89 6144.78 1843.86 6169.33 1862.57 6176.54C1881.29 6183.74 1903.67 6170.88 1912.56 6147.8C1921.46 6124.72 1913.49 6100.17 1894.78 6092.96Z" fill="#EF9C07"/>
<path d="M1832.43 6004.22C1833.09 6015.35 1836.6 6026.12 1842.61 6035.5C1848.62 6044.88 1856.93 6052.56 1866.76 6057.8C1876.58 6063.05 1887.59 6065.69 1898.73 6065.47C1909.86 6065.24 1920.76 6062.17 1930.38 6056.54L1970.14 6033.3C1976.21 6029.68 1981.19 6024.48 1984.54 6018.25C1987.67 6012.31 1989.18 6005.66 1988.93 5998.96C1988.68 5992.25 1986.68 5985.74 1983.12 5980.05C1979.56 5974.37 1974.58 5969.72 1968.66 5966.58C1962.75 5963.43 1956.11 5961.89 1949.41 5962.11C1939.63 5962.48 1929.94 5960.25 1921.32 5955.64C1912.69 5951.04 1905.45 5944.22 1900.32 5935.9C1896.78 5930.2 1891.81 5925.54 1885.9 5922.38C1879.99 5919.21 1873.36 5917.65 1866.66 5917.85C1859.95 5918.06 1853.42 5920.02 1847.71 5923.54C1842.01 5927.06 1837.32 5932.02 1834.12 5937.92C1830.81 5944.17 1829.25 5951.2 1829.63 5958.26L1832.43 6004.22Z" fill="#EF9C07"/>
<path d="M1952.24 6147.95C1935.26 6142.36 1927.11 6120.91 1933.93 6100.01C1940.81 6079.13 1960.14 6066.78 1977.07 6072.34C1993.99 6077.91 2002.09 6099.47 1995.32 6120.26C1988.56 6141.06 1969.22 6153.55 1952.24 6147.95Z" fill="#EF9C07"/>
<path d="M1794.32 6025.45C1780.62 6042.97 1758.38 6047.9 1744.29 6036.9C1730.2 6025.89 1729.82 6003.03 1743.35 5985.69C1756.87 5968.36 1779.2 5963.27 1793.32 5974.22C1807.45 5985.16 1808.02 6007.92 1794.32 6025.45Z" fill="#EF9C07"/>
<path d="M467.25 5695.21C455.756 5678.77 430.167 5677.04 409.736 5691C389.305 5704.97 382.386 5729.87 393.785 5746.4C405.183 5762.92 430.82 5764.61 451.251 5750.64C471.682 5736.68 478.696 5711.69 467.25 5695.21Z" fill="#EF9C07"/>
<path d="M522.387 5756.58C507.26 5743.41 481.829 5747.86 465.584 5766.51C449.339 5785.16 448.432 5810.95 463.559 5824.12C478.685 5837.29 504.117 5832.84 520.362 5814.19C536.606 5795.54 537.513 5769.75 522.387 5756.58Z" fill="#EF9C07"/>
<path d="M494.119 5651.88C490.942 5662.56 490.557 5673.88 492.999 5684.75C495.442 5695.62 500.63 5705.68 508.07 5713.97C515.509 5722.25 524.952 5728.49 535.495 5732.09C546.038 5735.69 557.33 5736.53 568.294 5734.52L613.6 5726.27C620.546 5724.94 627.003 5721.76 632.28 5717.05C637.246 5712.54 640.941 5706.8 642.998 5700.42C645.055 5694.03 645.4 5687.22 644 5680.67C642.6 5674.11 639.502 5668.04 635.018 5663.06C630.534 5658.08 624.819 5654.36 618.446 5652.28C609.136 5649.29 600.791 5643.88 594.26 5636.6C587.73 5629.33 583.248 5620.45 581.273 5610.87C579.892 5604.31 576.814 5598.23 572.344 5593.23C567.875 5588.24 562.172 5584.51 555.805 5582.41C549.438 5580.31 542.63 5579.92 536.061 5581.28C529.492 5582.64 523.393 5585.69 518.374 5590.15C513.123 5594.88 509.259 5600.96 507.197 5607.72L494.119 5651.88Z" fill="#EF9C07"/>
<path d="M557.598 5827.9C543.55 5816.84 543.218 5793.9 556.777 5776.58C570.379 5759.32 592.763 5754.32 606.768 5765.33C620.773 5776.34 621.011 5799.37 607.546 5816.6C594.082 5833.83 571.646 5838.96 557.598 5827.9Z" fill="#EF9C07"/>
<path d="M451.056 5658.8C432.191 5670.59 409.608 5667.62 400.125 5652.46C390.641 5637.31 398.105 5615.69 416.737 5604.02C435.369 5592.36 458.095 5595.2 467.626 5610.31C477.157 5625.43 469.921 5647.01 451.056 5658.8Z" fill="#EF9C07"/>
<path d="M137.693 5917.85C140.226 5937.75 162.077 5951.18 186.658 5948.32C211.239 5945.45 228.945 5926.62 226.536 5906.69C224.127 5886.76 202.214 5873.35 177.633 5876.21C153.052 5879.08 135.223 5897.94 137.693 5917.85Z" fill="#EF9C07"/>
<path d="M117.414 5837.88C124.683 5856.57 149.265 5864.46 172.319 5855.5C195.372 5846.54 208.168 5824.13 200.899 5805.44C193.629 5786.75 169.047 5778.86 145.994 5787.82C122.94 5796.77 110.144 5819.19 117.414 5837.88Z" fill="#EF9C07"/>
<path d="M93.7605 5943.72C101.54 5935.74 107.143 5925.9 110.034 5915.14C112.925 5904.38 113.008 5893.06 110.275 5882.27C107.542 5871.47 102.085 5861.56 94.4231 5853.47C86.7616 5845.38 77.1521 5839.39 66.5119 5836.07L22.5653 5822.31C15.8005 5820.25 8.60157 5820.07 1.74012 5821.79C-4.75393 5823.47 -10.6923 5826.83 -15.4816 5831.53C-20.2708 5836.22 -23.7431 5842.09 -25.5514 5848.55C-27.3596 5855 -27.4406 5861.82 -25.7861 5868.31C-24.1317 5874.81 -20.7998 5880.76 -16.1234 5885.56C-9.27394 5892.54 -4.40117 5901.21 -2.00218 5910.69C0.396806 5920.17 0.236149 5930.11 -2.46776 5939.51C-4.29568 5945.96 -4.39737 5952.77 -2.76266 5959.27C-1.12798 5965.77 2.18585 5971.73 6.84757 5976.55C11.5093 5981.36 17.3557 5984.87 23.8023 5986.73C30.249 5988.58 37.0701 5988.71 43.5839 5987.1C50.4362 5985.35 56.6824 5981.76 61.6529 5976.73L93.7605 5943.72Z" fill="#EF9C07"/>
<path d="M119.4 5758.37C126.695 5774.69 116.323 5795.16 96.2671 5804.18C76.1957 5813.15 54.0544 5807.16 46.7751 5790.9C39.4958 5774.64 49.992 5754.15 69.9239 5745.15C89.8558 5736.15 112.105 5742.04 119.4 5758.37Z" fill="#EF9C07"/>
<path d="M135.104 5957.61C157.287 5955.95 175.899 5969.08 177.249 5986.91C178.598 6004.73 161.938 6020.41 140.018 6022.07C118.099 6023.73 99.3009 6010.65 97.8896 5992.84C96.4783 5975.03 112.921 5959.28 135.104 5957.61Z" fill="#EF9C07"/>
<path d="M1522.67 4796.46C1503.42 4802.11 1493.62 4825.81 1500.34 4849.63C1507.06 4873.45 1528.46 4887.95 1547.76 4882.41C1567.06 4876.88 1576.83 4853.12 1570.11 4829.3C1563.39 4805.48 1541.94 4790.86 1522.67 4796.46Z" fill="#EF9C07"/>
<path d="M1598.42 4763.77C1581.12 4773.91 1577.22 4799.43 1589.72 4820.77C1602.21 4842.12 1626.37 4851.2 1643.68 4841.07C1660.98 4830.93 1664.88 4805.41 1652.38 4784.06C1639.89 4762.72 1615.73 4753.63 1598.42 4763.77Z" fill="#EF9C07"/>
<path d="M1490.17 4757.17C1499.29 4763.59 1509.89 4767.57 1520.97 4768.72C1532.05 4769.87 1543.24 4768.16 1553.47 4763.75C1563.69 4759.34 1572.62 4752.38 1579.39 4743.54C1586.17 4734.69 1590.56 4724.26 1592.15 4713.23L1598.78 4667.65C1599.74 4660.65 1598.78 4653.51 1596 4647.01C1593.31 4640.86 1589.05 4635.53 1583.65 4631.55C1578.26 4627.56 1571.91 4625.06 1565.25 4624.3C1558.59 4623.54 1551.85 4624.53 1545.7 4627.2C1539.55 4629.86 1534.21 4634.09 1530.2 4639.47C1524.4 4647.34 1516.61 4653.52 1507.63 4657.39C1498.65 4661.26 1488.81 4662.67 1479.1 4661.49C1472.44 4660.71 1465.69 4661.69 1459.54 4664.33C1453.38 4666.97 1448.02 4671.19 1444 4676.55C1439.98 4681.92 1437.44 4688.25 1436.63 4694.91C1435.83 4701.57 1436.78 4708.32 1439.4 4714.5C1442.21 4720.99 1446.74 4726.59 1452.49 4730.7L1490.17 4757.17Z" fill="#EF9C07"/>
<path d="M1677.25 4753.14C1662.29 4762.93 1640.44 4755.93 1628.35 4737.56C1616.32 4719.16 1618.72 4696.35 1633.62 4686.59C1648.53 4676.82 1670.43 4683.94 1682.47 4702.2C1694.5 4720.46 1692.21 4743.36 1677.25 4753.14Z" fill="#EF9C07"/>
<path d="M1483 4800.2C1488.16 4821.84 1478.14 4842.29 1460.75 4846.45C1443.36 4850.6 1425.25 4836.63 1420.14 4815.25C1415.02 4793.87 1424.96 4773.24 1442.33 4769.03C1459.69 4764.81 1477.85 4778.56 1483 4800.2Z" fill="#EF9C07"/>
<path d="M146.402 5006.31C161.386 5019.64 186.682 5015.4 203.329 4997.09C219.975 4978.78 220.946 4952.95 206.034 4939.51C191.123 4926.07 165.791 4930.36 149.144 4948.67C132.497 4966.98 131.454 4992.92 146.402 5006.31Z" fill="#EF9C07"/>
<path d="M78.5641 4959.35C96.3262 4968.66 120.04 4958.45 131.531 4936.55C143.021 4914.65 137.937 4889.35 120.175 4880.03C102.413 4870.72 78.6991 4880.93 67.2085 4902.83C55.7179 4924.73 60.8019 4950.04 78.5641 4959.35Z" fill="#EF9C07"/>
<path d="M130.283 5054.67C130.902 5043.54 128.659 5032.44 123.769 5022.43C118.879 5012.43 111.504 5003.84 102.35 4997.5C93.1947 4991.15 82.5652 4987.27 71.4757 4986.2C60.3861 4985.14 49.2068 4986.94 39.005 4991.43L-3.16389 5009.94C-9.61601 5012.83 -15.1611 5017.42 -19.2047 5023.23C-22.9924 5028.77 -25.2618 5035.2 -25.7861 5041.89C-26.3104 5048.57 -25.0713 5055.28 -22.1924 5061.33C-19.3136 5067.39 -14.896 5072.58 -9.38119 5076.39C-3.86636 5080.19 2.55254 5082.49 9.23397 5083.04C18.9835 5083.8 28.3543 5087.13 36.3905 5092.7C44.4267 5098.27 50.8406 5105.87 54.9778 5114.73C57.8382 5120.79 62.24 5126 67.7432 5129.82C73.2464 5133.65 79.6583 5135.96 86.3381 5136.53C93.0178 5137.09 99.7313 5135.9 105.808 5133.06C111.884 5130.22 117.11 5125.83 120.964 5120.34C124.977 5114.52 127.331 5107.71 127.773 5100.65L130.283 5054.67Z" fill="#EF9C07"/>
<path d="M27.8113 4898.1C44.0363 4905.61 49.666 4927.86 40.4795 4947.84C31.2404 4967.79 10.6197 4977.83 -5.55283 4970.35C-21.7253 4962.88 -27.2823 4940.53 -18.1685 4920.65C-9.05472 4900.78 11.5864 4890.59 27.8113 4898.1Z" fill="#EF9C07"/>
<path d="M170.576 5037.98C186.204 5022.15 208.861 5019.81 221.593 5032.36C234.325 5044.92 232.065 5067.68 216.636 5083.33C201.207 5098.99 178.44 5101.48 165.672 5088.98C152.903 5076.48 154.949 5053.81 170.576 5037.98Z" fill="#EF9C07"/>
<path d="M887.532 5255.4C907.324 5252.14 919.939 5229.81 916.172 5205.35C912.405 5180.89 892.934 5163.89 873.106 5167.03C853.278 5170.17 840.681 5192.56 844.448 5217.02C848.215 5241.48 867.723 5258.6 887.532 5255.4Z" fill="#EF9C07"/>
<path d="M808.36 5278.61C826.771 5270.66 833.751 5245.8 823.949 5223.09C814.148 5200.39 791.277 5188.42 772.866 5196.38C754.454 5204.33 747.474 5229.18 757.276 5251.89C767.077 5274.6 789.948 5286.56 808.36 5278.61Z" fill="#EF9C07"/>
<path d="M914.998 5298.35C906.735 5290.87 896.696 5285.64 885.838 5283.14C874.98 5280.65 863.667 5280.98 852.978 5284.11C842.289 5287.24 832.581 5293.06 824.781 5301.01C816.981 5308.97 811.349 5318.79 808.423 5329.54L796.289 5373.97C794.481 5380.8 794.565 5388 796.534 5394.8C798.457 5401.22 802.032 5407.04 806.901 5411.65C811.77 5416.26 817.763 5419.52 824.28 5421.09C830.798 5422.66 837.612 5422.49 844.041 5420.59C850.471 5418.7 856.29 5415.15 860.918 5410.3C867.641 5403.2 876.127 5398.01 885.51 5395.27C894.893 5392.52 904.837 5392.31 914.328 5394.67C920.841 5396.26 927.655 5396.11 934.09 5394.24C940.526 5392.37 946.356 5388.83 950.999 5384C955.642 5379.16 958.934 5373.19 960.548 5366.68C962.161 5360.17 962.039 5353.35 960.193 5346.9C958.188 5340.12 954.377 5334.01 949.169 5329.22L914.998 5298.35Z" fill="#EF9C07"/>
<path d="M728.825 5279.55C744.869 5271.66 765.702 5281.27 775.461 5300.98C785.158 5320.71 779.995 5343.06 764.012 5350.93C748.03 5358.8 727.16 5349.07 717.438 5329.48C707.716 5309.89 712.782 5287.44 728.825 5279.55Z" fill="#EF9C07"/>
<path d="M927.36 5256.53C924.88 5234.42 937.315 5215.34 955.082 5213.33C972.848 5211.33 989.122 5227.4 991.592 5249.24C994.061 5271.09 981.68 5290.35 963.931 5292.42C946.183 5294.48 929.84 5278.63 927.36 5256.53Z" fill="#EF9C07"/>
<path d="M1343.37 6338.11C1362.61 6343.8 1383.7 6329.2 1390.97 6305.54C1398.24 6281.89 1388.13 6258.1 1368.91 6252.28C1349.7 6246.47 1328.6 6261.13 1321.33 6284.78C1314.06 6308.44 1324.15 6332.35 1343.37 6338.11Z" fill="#EF9C07"/>
<path d="M1262 6324.48C1282.04 6325.35 1299.16 6306.02 1300.23 6281.31C1301.31 6256.6 1285.94 6235.87 1265.9 6235C1245.87 6234.13 1228.75 6253.46 1227.67 6278.17C1226.6 6302.88 1241.97 6323.61 1262 6324.48Z" fill="#EF9C07"/>
<path d="M1349.37 6388.73C1345.2 6378.4 1338.44 6369.31 1329.76 6362.33C1321.07 6355.36 1310.75 6350.73 1299.76 6348.88C1288.78 6347.04 1277.5 6348.04 1267.02 6351.8C1256.53 6355.56 1247.18 6361.95 1239.86 6370.35L1209.57 6405.04C1204.97 6410.41 1201.9 6416.92 1200.72 6423.9C1199.64 6430.52 1200.33 6437.31 1202.7 6443.58C1205.07 6449.86 1209.05 6455.4 1214.23 6459.65C1219.41 6463.9 1225.62 6466.72 1232.23 6467.82C1238.84 6468.92 1245.62 6468.26 1251.9 6465.92C1261.05 6462.45 1270.95 6461.48 1280.59 6463.1C1290.23 6464.72 1299.27 6468.87 1306.79 6475.13C1311.95 6479.4 1318.15 6482.23 1324.76 6483.35C1331.37 6484.47 1338.15 6483.84 1344.44 6481.51C1350.73 6479.18 1356.29 6475.24 1360.58 6470.08C1364.87 6464.93 1367.74 6458.74 1368.89 6452.13C1370.04 6445.15 1369.27 6437.99 1366.67 6431.41L1349.37 6388.73Z" fill="#EF9C07"/>
<path d="M1190.01 6290.66C1207.89 6290.55 1222.45 6308.28 1222.64 6330.28C1222.77 6352.26 1208.38 6370.12 1190.57 6370.24C1172.75 6370.36 1158.21 6352.5 1158 6330.63C1157.79 6308.77 1172.13 6290.77 1190.01 6290.66Z" fill="#EF9C07"/>
<path d="M1378.73 6356.48C1386.13 6335.5 1405.64 6323.75 1422.51 6329.69C1439.37 6335.63 1447.01 6357.19 1439.71 6377.92C1432.41 6398.66 1412.87 6410.6 1396 6404.72C1379.12 6398.85 1371.33 6377.45 1378.73 6356.48Z" fill="#EF9C07"/>
<path d="M1901.79 5093.87C1921.54 5090.4 1933.92 5067.93 1929.89 5043.52C1925.86 5019.1 1906.21 5002.31 1886.41 5005.66C1866.62 5009.01 1854.27 5031.54 1858.29 5055.96C1862.32 5080.37 1882.01 5097.29 1901.79 5093.87Z" fill="#EF9C07"/>
<path d="M1822.87 5117.93C1841.19 5109.78 1847.91 5084.85 1837.86 5062.25C1827.82 5039.65 1804.82 5027.93 1786.49 5036.08C1768.17 5044.23 1761.46 5069.16 1771.5 5091.76C1781.55 5114.36 1804.54 5126.08 1822.87 5117.93Z" fill="#EF9C07"/>
<path d="M1929.71 5136.53C1921.37 5129.14 1911.27 5124.01 1900.39 5121.63C1889.51 5119.25 1878.2 5119.71 1867.54 5122.95C1856.89 5126.19 1847.24 5132.12 1839.53 5140.15C1831.81 5148.19 1826.29 5158.07 1823.48 5168.86L1811.82 5213.41C1810.09 5220.26 1810.25 5227.46 1812.29 5234.24C1814.28 5240.64 1817.92 5246.41 1822.84 5250.98C1827.75 5255.54 1833.78 5258.73 1840.32 5260.23C1846.85 5261.72 1853.66 5261.48 1860.07 5259.52C1866.48 5257.56 1872.26 5253.95 1876.84 5249.05C1883.48 5241.88 1891.91 5236.6 1901.26 5233.75C1910.62 5230.9 1920.56 5230.59 1930.07 5232.85C1936.6 5234.37 1943.42 5234.14 1949.83 5232.2C1956.25 5230.26 1962.04 5226.67 1966.63 5221.78C1971.22 5216.9 1974.45 5210.89 1975.99 5204.36C1977.54 5197.84 1977.34 5191.02 1975.43 5184.59C1973.35 5177.82 1969.47 5171.76 1964.21 5167.03L1929.71 5136.53Z" fill="#EF9C07"/>
<path d="M1743.35 5119.72C1759.31 5111.66 1780.24 5121.05 1790.21 5140.65C1800.12 5160.27 1795.2 5182.68 1779.3 5190.72C1763.4 5198.76 1742.43 5189.25 1732.5 5169.77C1722.57 5150.29 1727.39 5127.78 1743.35 5119.72Z" fill="#EF9C07"/>
<path d="M1941.62 5094.57C1938.91 5072.49 1951.14 5053.28 1968.88 5051.08C1986.63 5048.89 2003.07 5064.78 2005.77 5086.6C2008.48 5108.41 1996.3 5127.81 1978.58 5130.07C1960.85 5132.32 1944.34 5116.65 1941.62 5094.57Z" fill="#EF9C07"/>
<path d="M760.355 6581.15C776.775 6592.67 801.414 6585.55 815.842 6565.45C830.27 6545.34 828.26 6519.57 811.9 6507.94C795.54 6496.3 770.871 6503.48 756.443 6523.58C742.016 6543.69 743.965 6569.57 760.355 6581.15Z" fill="#EF9C07"/>
<path d="M687.562 6542.32C706.278 6549.52 728.659 6536.66 737.552 6513.58C746.444 6490.5 738.481 6465.95 719.765 6458.74C701.049 6451.53 678.667 6464.4 669.775 6487.48C660.882 6510.56 668.846 6535.11 687.562 6542.32Z" fill="#EF9C07"/>
<path d="M749.911 6631.05C749.245 6619.93 745.74 6609.16 739.73 6599.78C733.719 6590.4 725.405 6582.72 715.581 6577.47C705.757 6572.23 694.751 6569.59 683.613 6569.81C672.475 6570.03 661.577 6573.11 651.959 6578.74L612.202 6601.98C606.125 6605.6 601.146 6610.8 597.798 6617.03C594.673 6622.97 593.159 6629.62 593.408 6636.32C593.657 6643.02 595.66 6649.54 599.217 6655.22C602.774 6660.91 607.76 6665.55 613.676 6668.7C619.593 6671.85 626.233 6673.39 632.933 6673.16C642.705 6672.8 652.398 6675.03 661.021 6679.64C669.645 6684.24 676.892 6691.05 682.022 6699.38C685.561 6705.07 690.533 6709.74 696.44 6712.9C702.347 6716.07 708.982 6717.63 715.683 6717.42C722.384 6717.22 728.915 6715.26 734.624 6711.74C740.333 6708.22 745.02 6703.26 748.216 6697.36C751.531 6691.11 753.085 6684.08 752.712 6677.02L749.911 6631.05Z" fill="#EF9C07"/>
<path d="M630.095 6487.32C647.077 6492.92 655.23 6514.36 648.406 6535.27C641.525 6556.15 622.197 6568.5 605.271 6562.93C588.346 6557.37 580.253 6535.81 587.018 6515.02C593.782 6494.22 613.114 6481.73 630.095 6487.32Z" fill="#EF9C07"/>
<path d="M788.015 6609.83C801.716 6592.3 823.953 6587.38 838.046 6598.38C852.139 6609.38 852.514 6632.25 838.99 6649.58C825.466 6666.91 803.138 6672.01 789.015 6661.06C774.893 6650.12 774.315 6627.36 788.015 6609.83Z" fill="#EF9C07"/>
<path d="M1826.69 6595.13C1838.18 6611.57 1863.77 6613.29 1884.2 6599.33C1904.63 6585.36 1911.55 6560.46 1900.15 6543.93C1888.75 6527.41 1863.12 6525.72 1842.68 6539.69C1822.25 6553.65 1815.24 6578.64 1826.69 6595.13Z" fill="#EF9C07"/>
<path d="M1771.55 6533.75C1786.68 6546.92 1812.11 6542.48 1828.35 6523.82C1844.6 6505.17 1845.5 6479.38 1830.38 6466.21C1815.25 6453.04 1789.82 6457.49 1773.57 6476.14C1757.33 6494.79 1756.42 6520.58 1771.55 6533.75Z" fill="#EF9C07"/>
<path d="M1799.82 6638.45C1802.99 6627.77 1803.38 6616.45 1800.94 6605.58C1798.49 6594.71 1793.31 6584.65 1785.87 6576.37C1778.43 6568.08 1768.98 6561.84 1758.44 6558.24C1747.9 6554.64 1736.61 6553.81 1725.64 6555.81L1680.34 6564.06C1673.39 6565.39 1666.93 6568.57 1661.66 6573.28C1656.69 6577.8 1652.99 6583.53 1650.94 6589.91C1648.88 6596.3 1648.54 6603.11 1649.94 6609.67C1651.34 6616.22 1654.43 6622.29 1658.92 6627.27C1663.4 6632.25 1669.12 6635.97 1675.49 6638.05C1684.8 6641.04 1693.15 6646.45 1699.68 6653.73C1706.21 6661.01 1710.69 6669.88 1712.66 6679.46C1714.04 6686.02 1717.12 6692.1 1721.59 6697.1C1726.06 6702.09 1731.76 6705.83 1738.13 6707.92C1744.5 6710.02 1751.31 6710.41 1757.87 6709.05C1764.44 6707.7 1770.54 6704.64 1775.56 6700.19C1780.81 6695.45 1784.68 6689.37 1786.74 6682.61L1799.82 6638.45Z" fill="#EF9C07"/>
<path d="M1736.34 6462.43C1750.39 6473.49 1750.72 6496.43 1737.16 6513.75C1723.56 6531.02 1701.17 6536.01 1687.17 6525C1673.16 6513.99 1672.93 6490.96 1686.39 6473.73C1699.85 6456.5 1722.29 6451.37 1736.34 6462.43Z" fill="#EF9C07"/>
<path d="M1842.88 6631.53C1861.74 6619.74 1884.33 6622.71 1893.81 6637.87C1903.29 6653.03 1895.83 6674.65 1877.2 6686.31C1858.57 6697.98 1835.84 6695.13 1826.31 6680.02C1816.78 6664.91 1824.01 6643.32 1842.88 6631.53Z" fill="#EF9C07"/>
<path d="M1860.35 7062.23C1857.81 7042.34 1835.96 7028.91 1811.38 7031.77C1786.8 7034.64 1769.1 7053.47 1771.5 7073.4C1773.91 7093.33 1795.83 7106.74 1820.41 7103.88C1844.99 7101.01 1862.82 7082.15 1860.35 7062.23Z" fill="#EF9C07"/>
<path d="M1880.63 7142.21C1873.36 7123.52 1848.78 7115.63 1825.72 7124.59C1802.67 7133.54 1789.87 7155.96 1797.14 7174.65C1804.41 7193.34 1828.99 7201.23 1852.05 7192.27C1875.1 7183.31 1887.9 7160.9 1880.63 7142.21Z" fill="#EF9C07"/>
<path d="M1904.28 7036.37C1896.5 7044.35 1890.9 7054.19 1888.01 7064.95C1885.12 7075.71 1885.03 7087.02 1887.77 7097.82C1890.5 7108.62 1895.96 7118.53 1903.62 7126.62C1911.28 7134.71 1920.89 7140.7 1931.53 7144.02L1975.48 7157.78C1982.24 7159.84 1989.44 7160.02 1996.3 7158.3C2002.79 7156.62 2008.73 7153.26 2013.52 7148.56C2018.31 7143.86 2021.78 7138 2023.59 7131.54C2025.4 7125.08 2025.48 7118.27 2023.83 7111.77C2022.17 7105.28 2018.84 7099.33 2014.16 7094.53C2007.31 7087.55 2002.44 7078.88 2000.04 7069.4C1997.64 7059.92 1997.8 7049.98 2000.51 7040.58C2002.34 7034.13 2002.44 7027.32 2000.8 7020.82C1999.17 7014.32 1995.85 7008.36 1991.19 7003.54C1986.53 6998.73 1980.68 6995.22 1974.24 6993.36C1967.79 6991.51 1960.97 6991.38 1954.46 6992.99C1947.6 6994.74 1941.36 6998.33 1936.39 7003.36L1904.28 7036.37Z" fill="#EF9C07"/>
<path d="M1878.64 7221.72C1871.35 7205.4 1881.72 7184.93 1901.77 7175.91C1921.84 7166.94 1943.99 7172.92 1951.27 7189.19C1958.54 7205.45 1948.05 7225.94 1928.12 7234.94C1908.18 7243.93 1885.94 7238.05 1878.64 7221.72Z" fill="#EF9C07"/>
<path d="M1862.94 7022.48C1840.75 7024.14 1822.14 7011.01 1820.79 6993.18C1819.44 6975.36 1836.1 6959.68 1858.02 6958.02C1879.94 6956.36 1898.74 6969.44 1900.15 6987.25C1901.56 7005.06 1885.12 7020.81 1862.94 7022.48Z" fill="#EF9C07"/>
<path d="M1437.22 7392.92C1456.47 7387.27 1466.27 7363.57 1459.55 7339.75C1452.83 7315.93 1431.43 7301.43 1412.13 7306.97C1392.84 7312.5 1383.06 7336.26 1389.78 7360.08C1396.5 7383.89 1417.95 7398.51 1437.22 7392.92Z" fill="#EF9C07"/>
<path d="M1361.47 7425.61C1378.78 7415.47 1382.67 7389.95 1370.18 7368.6C1357.68 7347.26 1333.52 7338.17 1316.22 7348.31C1298.91 7358.45 1295.01 7383.97 1307.51 7405.31C1320.01 7426.66 1344.17 7435.74 1361.47 7425.61Z" fill="#EF9C07"/>
<path d="M1469.72 7432.2C1460.61 7425.79 1450 7421.81 1438.92 7420.66C1427.84 7419.51 1416.65 7421.22 1406.43 7425.63C1396.2 7430.03 1387.27 7436.99 1380.5 7445.84C1373.73 7454.68 1369.34 7465.12 1367.74 7476.15L1361.11 7521.72C1360.15 7528.73 1361.11 7535.86 1363.89 7542.37C1366.59 7548.51 1370.84 7553.84 1376.24 7557.83C1381.63 7561.82 1387.98 7564.31 1394.64 7565.08C1401.3 7565.84 1408.04 7564.84 1414.19 7562.18C1420.34 7559.52 1425.69 7555.29 1429.69 7549.91C1435.5 7542.04 1443.29 7535.86 1452.26 7531.99C1461.24 7528.12 1471.09 7526.7 1480.8 7527.88C1487.45 7528.67 1494.2 7527.69 1500.36 7525.05C1506.52 7522.4 1511.87 7518.19 1515.89 7512.82C1519.91 7507.46 1522.45 7501.13 1523.26 7494.47C1524.07 7487.81 1523.11 7481.06 1520.5 7474.88C1517.68 7468.39 1513.15 7462.79 1507.4 7458.68L1469.72 7432.2Z" fill="#EF9C07"/>
<path d="M1282.64 7436.23C1297.61 7426.45 1319.46 7433.45 1331.54 7451.82C1343.57 7470.22 1341.17 7493.03 1326.27 7502.79C1311.37 7512.55 1289.46 7505.43 1277.43 7487.18C1265.39 7468.92 1267.68 7446.02 1282.64 7436.23Z" fill="#EF9C07"/>
<path d="M1476.89 7389.18C1471.74 7367.54 1481.75 7347.09 1499.14 7342.93C1516.53 7338.78 1534.64 7352.74 1539.76 7374.12C1544.87 7395.5 1534.93 7416.14 1517.57 7420.35C1500.2 7424.56 1482.05 7410.82 1476.89 7389.18Z" fill="#EF9C07"/>
<path d="M611.192 7539.09C596.208 7525.76 570.912 7530 554.266 7548.31C537.619 7566.62 536.648 7592.45 551.56 7605.89C566.471 7619.33 591.803 7615.04 608.45 7596.73C625.097 7578.42 626.14 7552.48 611.192 7539.09Z" fill="#EF9C07"/>
<path d="M679.03 7586.05C661.268 7576.74 637.554 7586.94 626.063 7608.85C614.573 7630.75 619.657 7656.05 637.419 7665.37C655.181 7674.68 678.895 7664.47 690.385 7642.57C701.876 7620.67 696.792 7595.36 679.03 7586.05Z" fill="#EF9C07"/>
<path d="M627.311 7490.73C626.692 7501.86 628.935 7512.96 633.825 7522.96C638.715 7532.97 646.089 7541.56 655.244 7547.9C664.399 7554.25 675.029 7558.13 686.118 7559.2C697.208 7560.26 708.387 7558.46 718.589 7553.97L760.758 7535.46C767.21 7532.57 772.755 7527.98 776.798 7522.17C780.586 7516.63 782.856 7510.2 783.38 7503.51C783.904 7496.83 782.665 7490.12 779.786 7484.07C776.907 7478.01 772.49 7472.82 766.975 7469.01C761.46 7465.2 755.041 7462.91 748.36 7462.36C738.61 7461.6 729.239 7458.27 721.203 7452.7C713.167 7447.13 706.753 7439.53 702.616 7430.67C699.756 7424.61 695.354 7419.4 689.851 7415.58C684.347 7411.75 677.936 7409.44 671.256 7408.87C664.576 7408.3 657.862 7409.5 651.786 7412.34C645.71 7415.18 640.484 7419.57 636.63 7425.06C632.617 7430.88 630.263 7437.69 629.822 7444.75L627.311 7490.73Z" fill="#EF9C07"/>
<path d="M729.782 7647.3C713.558 7639.78 707.928 7617.54 717.114 7597.56C726.353 7577.61 746.974 7567.57 763.147 7575.05C779.319 7582.52 784.876 7604.87 775.762 7624.75C766.648 7644.62 746.007 7654.81 729.782 7647.3Z" fill="#EF9C07"/>
<path d="M587.018 7507.42C571.39 7523.25 548.733 7525.59 536.001 7513.04C523.269 7500.48 525.529 7477.72 540.958 7462.07C556.388 7446.41 579.154 7443.92 591.922 7456.42C604.691 7468.92 602.645 7491.59 587.018 7507.42Z" fill="#EF9C07"/>
<path d="M11.391 6455.56C-8.40077 6458.83 -21.016 6481.16 -17.2489 6505.62C-13.4817 6530.07 5.98986 6547.07 25.8175 6543.93C45.6452 6540.79 58.2425 6518.4 54.4754 6493.94C50.7082 6469.48 31.2008 6452.36 11.391 6455.56Z" fill="#EF9C07"/>
<path d="M90.5637 6432.35C72.1523 6440.31 65.1726 6465.16 74.9739 6487.87C84.7752 6510.58 107.646 6522.54 126.058 6514.59C144.469 6506.64 151.449 6481.78 141.648 6459.07C131.846 6436.36 108.975 6424.4 90.5637 6432.35Z" fill="#EF9C07"/>
<path d="M-16.0746 6412.61C-7.81174 6420.09 2.22785 6425.33 13.0855 6427.82C23.9431 6430.32 35.2564 6429.98 45.9454 6426.85C56.6345 6423.73 66.3425 6417.91 74.1425 6409.95C81.9425 6402 87.5742 6392.18 90.5 6381.42L102.634 6337C104.443 6330.16 104.358 6322.96 102.389 6316.17C100.466 6309.74 96.8915 6303.93 92.0225 6299.32C87.1534 6294.7 81.1606 6291.45 74.6431 6289.88C68.1256 6288.31 61.3116 6288.48 54.8822 6290.37C48.4528 6292.26 42.6334 6295.81 38.0053 6300.66C31.2823 6307.76 22.7963 6312.95 13.4135 6315.7C4.03057 6318.44 -5.91354 6318.65 -15.4045 6316.29C-21.9173 6314.7 -28.732 6314.85 -35.1671 6316.73C-41.6022 6318.6 -47.4325 6322.13 -52.0753 6326.97C-56.7182 6331.8 -60.0109 6337.77 -61.6244 6344.28C-63.2379 6350.79 -63.1155 6357.62 -61.2696 6364.07C-59.2649 6370.85 -55.454 6376.96 -50.2452 6381.74L-16.0746 6412.61Z" fill="#EF9C07"/>
<path d="M170.098 6431.41C154.055 6439.3 133.221 6429.69 123.463 6409.98C113.766 6390.25 118.929 6367.91 134.911 6360.04C150.893 6352.16 171.763 6361.9 181.485 6381.48C191.208 6401.07 186.142 6423.52 170.098 6431.41Z" fill="#EF9C07"/>
<path d="M-28.4366 6454.44C-25.9565 6476.54 -38.3918 6495.63 -56.1581 6497.63C-73.9243 6499.64 -90.1987 6483.56 -92.6683 6461.72C-95.1379 6439.88 -82.7562 6420.61 -65.0079 6418.55C-47.2596 6416.48 -30.9168 6432.33 -28.4366 6454.44Z" fill="#EF9C07"/>
<path d="M38.9785 7239.75C19.2228 7243.23 6.84769 7265.69 10.8768 7290.11C14.9059 7314.53 34.5587 7331.32 54.3515 7327.96C74.1444 7324.61 86.501 7302.09 82.4719 7277.67C78.4428 7253.25 58.7528 7236.34 38.9785 7239.75Z" fill="#EF9C07"/>
<path d="M117.898 7215.7C99.5728 7223.85 92.8598 7248.77 102.904 7271.38C112.948 7293.98 135.946 7305.69 154.271 7297.55C172.596 7289.4 179.309 7264.47 169.265 7241.87C159.221 7219.26 136.223 7207.55 117.898 7215.7Z" fill="#EF9C07"/>
<path d="M11.0543 7197.1C19.3968 7204.49 29.4917 7209.62 40.3754 7212C51.2592 7214.37 62.5683 7213.92 73.2232 7210.67C83.8781 7207.43 93.5231 7201.51 101.237 7193.47C108.952 7185.43 114.478 7175.55 117.288 7164.77L128.945 7120.22C130.681 7113.36 130.519 7106.16 128.477 7099.39C126.485 7092.98 122.848 7087.21 117.93 7082.65C113.012 7078.09 106.985 7074.9 100.451 7073.4C93.9168 7071.9 87.1051 7072.14 80.6964 7074.1C74.2876 7076.07 68.5064 7079.68 63.9305 7084.57C57.2841 7091.75 48.8543 7097.03 39.5014 7099.87C30.1485 7102.72 20.2073 7103.03 10.6916 7100.78C4.16221 7099.26 -2.65022 7099.48 -9.06487 7101.42C-15.4795 7103.36 -21.2716 7106.96 -25.8624 7111.84C-30.4531 7116.73 -33.6818 7122.73 -35.2254 7129.26C-36.769 7135.79 -36.5733 7142.61 -34.6585 7149.04C-32.5811 7155.8 -28.7046 7161.87 -23.4449 7166.59L11.0543 7197.1Z" fill="#EF9C07"/>
<path d="M197.418 7213.9C181.46 7221.97 160.524 7212.58 150.555 7192.97C140.647 7173.35 145.571 7150.95 161.467 7142.91C177.364 7134.86 198.337 7144.37 208.269 7163.85C218.201 7183.34 213.376 7205.84 197.418 7213.9Z" fill="#EF9C07"/>
<path d="M-0.85868 7239.05C1.85829 7261.13 -10.3715 7280.35 -28.1153 7282.54C-45.859 7284.74 -62.3042 7268.84 -65.0078 7247.03C-67.7115 7225.21 -55.5377 7205.81 -37.8125 7203.56C-20.0874 7201.3 -3.57565 7216.98 -0.85868 7239.05Z" fill="#EF9C07"/>
<path d="M1938.82 9382.5C1955.24 9394.02 1979.88 9386.9 1994.31 9366.8C2008.73 9346.69 2006.72 9320.92 1990.36 9309.28C1974 9297.65 1949.34 9304.83 1934.91 9324.93C1920.48 9345.04 1922.43 9370.92 1938.82 9382.5Z" fill="#EF9C07"/>
<path d="M1866.03 9343.67C1884.74 9350.87 1907.12 9338 1916.02 9314.92C1924.91 9291.84 1916.95 9267.29 1898.23 9260.09C1879.51 9252.88 1857.13 9265.75 1848.24 9288.83C1839.35 9311.91 1847.31 9336.46 1866.03 9343.67Z" fill="#EF9C07"/>
<path d="M1928.38 9432.4C1927.71 9421.28 1924.2 9410.51 1918.19 9401.13C1912.18 9391.75 1903.87 9384.07 1894.05 9378.82C1884.22 9373.58 1873.21 9370.94 1862.08 9371.16C1850.94 9371.38 1840.04 9374.46 1830.42 9380.09L1790.67 9403.33C1784.59 9406.94 1779.61 9412.15 1776.26 9418.38C1773.14 9424.31 1771.62 9430.97 1771.87 9437.67C1772.12 9444.37 1774.12 9450.89 1777.68 9456.57C1781.24 9462.26 1786.22 9466.9 1792.14 9470.05C1798.06 9473.2 1804.7 9474.74 1811.4 9474.51C1821.17 9474.15 1830.86 9476.38 1839.49 9480.98C1848.11 9485.59 1855.36 9492.4 1860.49 9500.73C1864.03 9506.42 1869 9511.08 1874.9 9514.25C1880.81 9517.42 1887.45 9518.98 1894.15 9518.77C1900.85 9518.57 1907.38 9516.61 1913.09 9513.09C1918.8 9509.56 1923.48 9504.61 1926.68 9498.71C1930 9492.46 1931.55 9485.43 1931.18 9478.37L1928.38 9432.4Z" fill="#EF9C07"/>
<path d="M1808.56 9288.67C1825.54 9294.27 1833.69 9315.71 1826.87 9336.62C1819.99 9357.5 1800.66 9369.85 1783.74 9364.28C1766.81 9358.72 1758.72 9337.16 1765.48 9316.37C1772.25 9295.57 1791.58 9283.08 1808.56 9288.67Z" fill="#EF9C07"/>
<path d="M1966.48 9411.18C1980.18 9393.65 2002.42 9388.73 2016.51 9399.73C2030.6 9410.73 2030.98 9433.6 2017.45 9450.93C2003.93 9468.26 1981.6 9473.36 1967.48 9462.41C1953.36 9451.46 1952.78 9428.7 1966.48 9411.18Z" fill="#EF9C07"/>
<path d="M1951.94 7797.57C1963.44 7814.01 1989.03 7815.74 2009.46 7801.78C2029.89 7787.81 2036.81 7762.91 2025.41 7746.38C2014.01 7729.86 1988.37 7728.17 1967.94 7742.14C1947.51 7756.1 1940.5 7781.09 1951.94 7797.57Z" fill="#EF9C07"/>
<path d="M1896.81 7736.2C1911.93 7749.37 1937.36 7744.92 1953.61 7726.27C1969.85 7707.62 1970.76 7681.83 1955.64 7668.66C1940.51 7655.49 1915.08 7659.93 1898.83 7678.58C1882.59 7697.23 1881.68 7723.03 1896.81 7736.2Z" fill="#EF9C07"/>
<path d="M1925.07 7840.9C1928.25 7830.22 1928.64 7818.9 1926.19 7808.03C1923.75 7797.16 1918.56 7787.1 1911.12 7778.81C1903.68 7770.53 1894.24 7764.28 1883.7 7760.69C1873.16 7757.09 1861.86 7756.25 1850.9 7758.26L1805.59 7766.51C1798.65 7767.83 1792.19 7771.02 1786.91 7775.73C1781.95 7780.24 1778.25 7785.98 1776.2 7792.36C1774.14 7798.75 1773.79 7805.56 1775.19 7812.11C1776.59 7818.67 1779.69 7824.74 1784.18 7829.72C1788.66 7834.7 1794.37 7838.42 1800.75 7840.5C1810.06 7843.49 1818.4 7848.9 1824.93 7856.18C1831.46 7863.45 1835.95 7872.33 1837.92 7881.91C1839.3 7888.47 1842.38 7894.55 1846.85 7899.55C1851.32 7904.54 1857.02 7908.27 1863.39 7910.37C1869.76 7912.47 1876.56 7912.86 1883.13 7911.5C1889.7 7910.14 1895.8 7907.08 1900.82 7902.63C1906.07 7897.89 1909.93 7891.82 1912 7885.05L1925.07 7840.9Z" fill="#EF9C07"/>
<path d="M1861.6 7664.88C1875.64 7675.94 1875.98 7698.88 1862.42 7716.19C1848.81 7733.46 1826.43 7738.46 1812.43 7727.45C1798.42 7716.44 1798.18 7693.41 1811.65 7676.18C1825.11 7658.95 1847.55 7653.82 1861.6 7664.88Z" fill="#EF9C07"/>
<path d="M1968.14 7833.98C1987 7822.19 2009.58 7825.16 2019.07 7840.32C2028.55 7855.47 2021.09 7877.09 2002.46 7888.76C1983.82 7900.42 1961.1 7897.58 1951.57 7882.47C1942.04 7867.35 1949.27 7845.77 1968.14 7833.98Z" fill="#EF9C07"/>
<path d="M1838.4 8540.07C1835.87 8520.18 1814.02 8506.75 1789.43 8509.61C1764.85 8512.48 1747.15 8531.31 1749.56 8551.24C1751.96 8571.17 1773.88 8584.58 1798.46 8581.72C1823.04 8578.85 1840.87 8559.99 1838.4 8540.07Z" fill="#EF9C07"/>
<path d="M1858.68 8620.05C1851.41 8601.36 1826.83 8593.47 1803.77 8602.42C1780.72 8611.38 1767.92 8633.8 1775.19 8652.49C1782.46 8671.18 1807.04 8679.07 1830.1 8670.11C1853.15 8661.15 1865.95 8638.74 1858.68 8620.05Z" fill="#EF9C07"/>
<path d="M1882.33 8514.21C1874.55 8522.19 1868.95 8532.03 1866.06 8542.79C1863.17 8553.55 1863.08 8564.86 1865.82 8575.66C1868.55 8586.46 1874.01 8596.37 1881.67 8604.46C1889.33 8612.55 1898.94 8618.54 1909.58 8621.86L1953.53 8635.62C1960.29 8637.68 1967.49 8637.86 1974.35 8636.14C1980.85 8634.45 1986.78 8631.1 1991.57 8626.4C1996.36 8621.7 1999.84 8615.83 2001.64 8609.38C2003.45 8602.92 2003.53 8596.11 2001.88 8589.61C2000.22 8583.12 1996.89 8577.17 1992.22 8572.37C1985.37 8565.39 1980.49 8556.72 1978.09 8547.24C1975.7 8537.76 1975.86 8527.82 1978.56 8518.42C1980.39 8511.97 1980.49 8505.16 1978.85 8498.66C1977.22 8492.16 1973.91 8486.2 1969.24 8481.38C1964.58 8476.56 1958.74 8473.05 1952.29 8471.2C1945.84 8469.35 1939.02 8469.22 1932.51 8470.83C1925.66 8472.58 1919.41 8476.17 1914.44 8481.2L1882.33 8514.21Z" fill="#EF9C07"/>
<path d="M1856.69 8699.56C1849.4 8683.24 1859.77 8662.77 1879.83 8653.75C1899.9 8644.78 1922.04 8650.76 1929.32 8667.03C1936.6 8683.29 1926.1 8703.78 1906.17 8712.78C1886.24 8721.77 1863.99 8715.89 1856.69 8699.56Z" fill="#EF9C07"/>
<path d="M1840.99 8500.31C1818.81 8501.98 1800.19 8488.85 1798.84 8471.02C1797.49 8453.19 1814.15 8437.52 1836.07 8435.86C1857.99 8434.19 1876.79 8447.28 1878.2 8465.09C1879.61 8482.9 1863.17 8498.65 1840.99 8500.31Z" fill="#EF9C07"/>
<path d="M1141.33 8430.27C1160.57 8424.62 1170.37 8400.91 1163.65 8377.1C1156.93 8353.28 1135.53 8338.78 1116.24 8344.31C1096.94 8349.85 1087.17 8373.61 1093.89 8397.42C1100.61 8421.24 1122.06 8435.86 1141.33 8430.27Z" fill="#EF9C07"/>
<path d="M1065.57 8462.95C1082.88 8452.82 1086.78 8427.29 1074.28 8405.95C1061.79 8384.61 1037.63 8375.52 1020.32 8385.66C1003.02 8395.79 999.119 8421.32 1011.61 8442.66C1024.11 8464 1048.27 8473.09 1065.57 8462.95Z" fill="#EF9C07"/>
<path d="M1173.82 8469.55C1164.71 8463.13 1154.11 8459.16 1143.03 8458.01C1131.95 8456.86 1120.76 8458.57 1110.53 8462.97C1100.3 8467.38 1091.38 8474.34 1084.6 8483.19C1077.83 8492.03 1073.44 8502.47 1071.85 8513.5L1065.22 8559.07C1064.26 8566.07 1065.22 8573.21 1068 8579.71C1070.69 8585.86 1074.95 8591.19 1080.34 8595.18C1085.74 8599.16 1092.08 8601.66 1098.74 8602.42C1105.4 8603.19 1112.15 8602.19 1118.3 8599.53C1124.45 8596.87 1129.79 8592.63 1133.79 8587.26C1139.6 8579.39 1147.39 8573.2 1156.37 8569.33C1165.35 8565.47 1175.19 8564.05 1184.9 8565.23C1191.56 8566.01 1198.3 8565.04 1204.46 8562.39C1210.62 8559.75 1215.98 8555.53 1220 8550.17C1224.01 8544.8 1226.55 8538.48 1227.36 8531.82C1228.17 8525.16 1227.22 8518.4 1224.6 8512.23C1221.78 8505.74 1217.26 8500.14 1211.5 8496.03L1173.82 8469.55Z" fill="#EF9C07"/>
<path d="M986.748 8473.58C1001.71 8463.79 1023.56 8470.79 1035.65 8489.17C1047.68 8507.57 1045.28 8530.38 1030.37 8540.14C1015.47 8549.9 993.569 8542.78 981.531 8524.52C969.494 8506.27 971.785 8483.37 986.748 8473.58Z" fill="#EF9C07"/>
<path d="M1181 8426.53C1175.84 8404.89 1185.86 8384.43 1203.25 8380.28C1220.63 8376.12 1238.75 8390.09 1243.86 8411.47C1248.97 8432.85 1239.03 8453.48 1221.67 8457.7C1204.3 8461.91 1186.15 8448.17 1181 8426.53Z" fill="#EF9C07"/>
<path d="M874.135 9217.94C859.15 9204.6 833.855 9208.84 817.208 9227.15C800.561 9245.46 799.59 9271.29 814.502 9284.73C829.414 9298.17 854.746 9293.88 871.392 9275.57C888.039 9257.26 889.083 9231.32 874.135 9217.94Z" fill="#EF9C07"/>
<path d="M941.972 9264.89C924.21 9255.58 900.496 9265.79 889.006 9287.69C877.515 9309.59 882.599 9334.89 900.361 9344.21C918.123 9353.52 941.837 9343.31 953.328 9321.41C964.818 9299.51 959.734 9274.21 941.972 9264.89Z" fill="#EF9C07"/>
<path d="M890.254 9169.57C889.635 9180.7 891.877 9191.8 896.767 9201.81C901.657 9211.82 909.032 9220.4 918.187 9226.74C927.341 9233.09 937.971 9236.98 949.061 9238.04C960.15 9239.1 971.329 9237.3 981.531 9232.81L1023.7 9214.3C1030.15 9211.41 1035.7 9206.82 1039.74 9201.01C1043.53 9195.48 1045.8 9189.04 1046.32 9182.35C1046.85 9175.67 1045.61 9168.96 1042.73 9162.91C1039.85 9156.85 1035.43 9151.66 1029.92 9147.85C1024.4 9144.05 1017.98 9141.75 1011.3 9141.21C1001.55 9140.44 992.182 9137.11 984.146 9131.54C976.109 9125.98 969.696 9118.37 965.558 9109.51C962.698 9103.45 958.296 9098.25 952.793 9094.42C947.29 9090.59 940.878 9088.28 934.198 9087.71C927.518 9087.15 920.805 9088.34 914.728 9091.18C908.652 9094.02 903.426 9098.41 899.572 9103.9C895.559 9109.72 893.206 9116.53 892.764 9123.59L890.254 9169.57Z" fill="#EF9C07"/>
<path d="M992.725 9326.14C976.5 9318.63 970.87 9296.38 980.057 9276.4C989.296 9256.45 1009.92 9246.41 1026.09 9253.89C1042.26 9261.36 1047.82 9283.71 1038.7 9303.59C1029.59 9323.47 1008.95 9333.65 992.725 9326.14Z" fill="#EF9C07"/>
<path d="M849.96 9186.26C834.333 9202.1 811.676 9204.43 798.944 9191.88C786.211 9179.33 788.472 9156.56 803.901 9140.91C819.33 9125.25 842.096 9122.76 854.865 9135.26C867.633 9147.76 865.587 9170.43 849.96 9186.26Z" fill="#EF9C07"/>
<path d="M55.8016 8223.63C36.0099 8226.89 23.3945 8249.22 27.1616 8273.68C30.9288 8298.14 50.4005 8315.14 70.2282 8312C90.0559 8308.86 102.653 8286.47 98.886 8262.01C95.1189 8237.55 75.6114 8220.43 55.8016 8223.63Z" fill="#EF9C07"/>
<path d="M134.974 8200.42C116.563 8208.37 109.583 8233.23 119.385 8255.94C129.186 8278.64 152.057 8290.61 170.468 8282.65C188.88 8274.7 195.86 8249.85 186.058 8227.14C176.257 8204.43 153.386 8192.47 134.974 8200.42Z" fill="#EF9C07"/>
<path d="M28.3359 8180.68C36.5988 8188.16 46.6385 8193.39 57.4961 8195.89C68.3537 8198.38 79.667 8198.05 90.3561 8194.92C101.045 8191.79 110.753 8185.97 118.553 8178.02C126.353 8170.06 131.985 8160.24 134.911 8149.49L147.045 8105.06C148.853 8098.23 148.769 8091.03 146.8 8084.23C144.877 8077.81 141.302 8071.99 136.433 8067.38C131.564 8062.77 125.571 8059.51 119.054 8057.94C112.536 8056.38 105.722 8056.55 99.2928 8058.44C92.8635 8060.33 87.044 8063.88 82.4159 8068.73C75.6929 8075.83 67.207 8081.02 57.8241 8083.76C48.4412 8086.51 38.4968 8086.72 29.0059 8084.36C22.4931 8082.77 15.6787 8082.92 9.24365 8084.79C2.80853 8086.66 -3.02172 8090.2 -7.66455 8095.03C-12.3074 8099.87 -15.6 8105.84 -17.2135 8112.35C-18.827 8118.86 -18.7047 8125.68 -16.8589 8132.13C-14.8541 8138.91 -11.043 8145.02 -5.83423 8149.81L28.3359 8180.68Z" fill="#EF9C07"/>
<path d="M214.509 8199.48C198.465 8207.37 177.632 8197.76 167.873 8178.05C158.176 8158.32 163.339 8135.97 179.322 8128.1C195.304 8120.23 216.174 8129.96 225.896 8149.55C235.618 8169.14 230.552 8191.59 214.509 8199.48Z" fill="#EF9C07"/>
<path d="M15.9739 8222.5C18.454 8244.61 6.01894 8263.69 -11.7473 8265.7C-29.5136 8267.7 -45.7873 8251.63 -48.2569 8229.79C-50.7265 8207.94 -38.3456 8188.68 -20.5973 8186.61C-2.84899 8184.55 13.4938 8200.4 15.9739 8222.5Z" fill="#EF9C07"/>
<path d="M16.7677 9160.87C-2.98799 9164.35 -15.3631 9186.81 -11.334 9211.23C-7.30489 9235.65 12.3479 9252.44 32.1407 9249.08C51.9336 9245.73 64.2902 9223.2 60.2611 9198.79C56.232 9174.37 36.5419 9157.46 16.7677 9160.87Z" fill="#EF9C07"/>
<path d="M95.6871 9136.82C77.362 9144.96 70.649 9169.89 80.6932 9192.5C90.7374 9215.1 113.735 9226.81 132.061 9218.66C150.386 9210.52 157.099 9185.59 147.054 9162.98C137.01 9140.38 114.012 9128.67 95.6871 9136.82Z" fill="#EF9C07"/>
<path d="M-11.1565 9118.22C-2.81398 9125.61 7.28092 9130.74 18.1646 9133.11C29.0484 9135.49 40.3575 9135.04 51.0124 9131.79C61.6673 9128.55 71.3123 9122.63 79.0266 9114.59C86.7409 9106.55 92.2669 9096.67 95.0772 9085.89L106.735 9041.33C108.47 9034.48 108.308 9027.28 106.267 9020.51C104.275 9014.1 100.638 9008.33 95.7194 9003.77C90.8012 8999.21 84.7739 8996.02 78.2399 8994.52C71.706 8993.02 64.8943 8993.26 58.4855 8995.22C52.0768 8997.18 46.2956 9000.8 41.7197 9005.69C35.0732 9012.87 26.6435 9018.15 17.2906 9020.99C7.9377 9023.84 -2.0035 9024.15 -11.5192 9021.9C-18.0486 9020.38 -24.861 9020.6 -31.2757 9022.54C-37.6903 9024.48 -43.4826 9028.08 -48.0733 9032.96C-52.664 9037.85 -55.8927 9043.85 -57.4363 9050.38C-58.9799 9056.91 -58.7843 9063.73 -56.8694 9070.16C-54.792 9076.92 -50.9156 9082.99 -45.6558 9087.71L-11.1565 9118.22Z" fill="#EF9C07"/>
<path d="M175.207 9135.02C159.249 9143.08 138.313 9133.7 128.344 9114.09C118.436 9094.47 123.36 9072.07 139.257 9064.03C155.154 9055.98 176.126 9065.49 186.058 9084.97C195.99 9104.46 191.165 9126.96 175.207 9135.02Z" fill="#EF9C07"/>
<path d="M-23.0694 9160.17C-20.3524 9182.25 -32.5825 9201.47 -50.3262 9203.66C-68.0699 9205.86 -84.5149 9189.96 -87.2185 9168.14C-89.9222 9146.33 -77.7486 9126.93 -60.0235 9124.68C-42.2983 9122.42 -25.7863 9138.1 -23.0694 9160.17Z" fill="#EF9C07"/>
<path d="M1760.16 1332.11C1743.74 1320.59 1719.1 1327.71 1704.67 1347.82C1690.24 1367.92 1692.25 1393.69 1708.61 1405.33C1724.97 1416.96 1749.64 1409.78 1764.07 1389.68C1778.5 1369.57 1776.55 1343.69 1760.16 1332.11Z" fill="#EF9C07"/>
<path d="M1832.95 1370.95C1814.23 1363.74 1791.85 1376.61 1782.96 1399.69C1774.07 1422.77 1782.03 1447.32 1800.75 1454.52C1819.46 1461.73 1841.84 1448.86 1850.74 1425.78C1859.63 1402.7 1851.67 1378.15 1832.95 1370.95Z" fill="#EF9C07"/>
<path d="M1770.6 1282.21C1771.27 1293.34 1774.77 1304.1 1780.78 1313.48C1786.79 1322.86 1795.11 1330.54 1804.93 1335.79C1814.76 1341.04 1825.76 1343.67 1836.9 1343.45C1848.04 1343.23 1858.94 1340.16 1868.55 1334.52L1908.31 1311.28C1914.39 1307.67 1919.37 1302.46 1922.71 1296.23C1925.84 1290.3 1927.35 1283.65 1927.1 1276.94C1926.85 1270.24 1924.85 1263.72 1921.3 1258.04C1917.74 1252.36 1912.75 1247.71 1906.84 1244.56C1900.92 1241.41 1894.28 1239.87 1887.58 1240.1C1877.81 1240.47 1868.11 1238.23 1859.49 1233.63C1850.87 1229.02 1843.62 1222.21 1838.49 1213.88C1834.95 1208.19 1829.98 1203.53 1824.07 1200.36C1818.17 1197.19 1811.53 1195.64 1804.83 1195.84C1798.13 1196.04 1791.6 1198.01 1785.89 1201.53C1780.18 1205.05 1775.49 1210 1772.3 1215.9C1768.98 1222.15 1767.43 1229.18 1767.8 1236.24L1770.6 1282.21Z" fill="#EF9C07"/>
<path d="M1890.42 1425.94C1873.43 1420.35 1865.28 1398.9 1872.11 1377.99C1878.99 1357.11 1898.32 1344.77 1915.24 1350.33C1932.17 1355.89 1940.26 1377.45 1933.49 1398.25C1926.73 1419.04 1907.4 1431.53 1890.42 1425.94Z" fill="#EF9C07"/>
<path d="M1732.5 1303.43C1718.8 1320.96 1696.56 1325.89 1682.47 1314.88C1668.37 1303.88 1668 1281.01 1681.52 1263.68C1695.05 1246.35 1717.37 1241.25 1731.5 1252.2C1745.62 1263.15 1746.2 1285.91 1732.5 1303.43Z" fill="#EF9C07"/>
<path d="M507.642 868.75C496.148 852.31 470.559 850.581 450.128 864.546C429.697 878.511 422.778 903.416 434.177 919.941C445.576 936.466 471.212 938.152 491.643 924.188C512.074 910.223 519.088 885.232 507.642 868.75Z" fill="#EF9C07"/>
<path d="M562.779 930.124C547.653 916.956 522.221 921.4 505.976 940.05C489.731 958.701 488.824 984.495 503.951 997.664C519.077 1010.83 544.509 1006.39 560.754 987.738C576.999 969.088 577.906 943.293 562.779 930.124Z" fill="#EF9C07"/>
<path d="M534.511 825.423C531.335 836.107 530.949 847.423 533.392 858.292C535.834 869.162 541.023 879.221 548.462 887.509C555.902 895.797 565.344 902.038 575.887 905.636C586.43 909.234 597.723 910.069 608.686 908.061L653.992 899.811C660.938 898.489 667.396 895.301 672.672 890.591C677.638 886.079 681.334 880.345 683.391 873.961C685.447 867.576 685.793 860.766 684.392 854.21C682.992 847.654 679.895 841.582 675.41 836.601C670.926 831.621 665.211 827.905 658.838 825.827C649.529 822.832 641.183 817.421 634.653 810.145C628.122 802.87 623.641 793.99 621.665 784.413C620.285 777.853 617.206 771.771 612.737 766.777C608.267 761.783 602.564 758.05 596.197 755.952C589.83 753.854 583.022 753.465 576.453 754.823C569.885 756.18 563.786 759.238 558.766 763.689C553.515 768.428 549.651 774.505 547.589 781.268L534.511 825.423Z" fill="#EF9C07"/>
<path d="M597.99 1001.45C583.942 990.387 583.61 967.445 597.169 950.128C610.771 932.86 633.155 927.861 647.161 938.874C661.166 949.886 661.403 972.913 647.939 990.144C634.474 1007.37 612.038 1012.51 597.99 1001.45Z" fill="#EF9C07"/>
<path d="M491.448 832.345C472.583 844.133 450.001 841.163 440.517 826.007C431.033 810.85 438.497 789.229 457.129 777.565C475.762 765.9 498.487 768.742 508.018 783.856C517.549 798.97 510.314 820.558 491.448 832.345Z" fill="#EF9C07"/>
<path d="M137.693 1305.86C140.226 1325.75 162.077 1339.18 186.658 1336.32C211.239 1333.45 228.944 1314.62 226.536 1294.69C224.127 1274.76 202.214 1261.35 177.633 1264.21C153.052 1267.08 135.222 1285.94 137.693 1305.86Z" fill="#EF9C07"/>
<path d="M117.414 1225.88C124.683 1244.57 149.265 1252.46 172.319 1243.51C195.372 1234.55 208.168 1212.13 200.898 1193.44C193.629 1174.75 169.047 1166.86 145.993 1175.82C122.94 1184.78 110.144 1207.19 117.414 1225.88Z" fill="#EF9C07"/>
<path d="M93.7603 1331.72C101.54 1323.74 107.143 1313.9 110.034 1303.14C112.925 1292.38 113.008 1281.07 110.275 1270.27C107.542 1259.47 102.085 1249.56 94.423 1241.47C86.7615 1233.38 77.1519 1227.39 66.5117 1224.07L22.5651 1210.31C15.8004 1208.25 8.60144 1208.07 1.74 1209.79C-4.75405 1211.48 -10.6924 1214.83 -15.4817 1219.53C-20.2709 1224.23 -23.7432 1230.1 -25.5515 1236.55C-27.3598 1243.01 -27.4407 1249.82 -25.7862 1256.32C-24.1318 1262.81 -20.7999 1268.76 -16.1235 1273.56C-9.27406 1280.54 -4.40129 1289.21 -2.00231 1298.69C0.396681 1308.17 0.236027 1318.11 -2.46789 1327.51C-4.2958 1333.96 -4.39749 1340.77 -2.76279 1347.27C-1.1281 1353.77 2.18572 1359.73 6.84745 1364.55C11.5092 1369.37 17.3556 1372.88 23.8022 1374.73C30.2489 1376.58 37.07 1376.71 43.5838 1375.1C50.436 1373.35 56.6822 1369.76 61.6528 1364.73L93.7603 1331.72Z" fill="#EF9C07"/>
<path d="M119.4 1146.37C126.695 1162.69 116.323 1183.16 96.267 1192.18C76.1956 1201.15 54.0543 1195.17 46.775 1178.9C39.4956 1162.64 49.9919 1142.15 69.9238 1133.15C89.8557 1124.16 112.105 1130.04 119.4 1146.37Z" fill="#EF9C07"/>
<path d="M135.104 1345.62C157.287 1343.95 175.899 1357.08 177.249 1374.91C178.598 1392.74 161.938 1408.41 140.018 1410.07C118.099 1411.74 99.3008 1398.65 97.8895 1380.84C96.4782 1363.03 112.921 1347.28 135.104 1345.62Z" fill="#EF9C07"/>
<path d="M1147.33 172.407C1128.09 178.058 1118.29 201.76 1125.01 225.578C1131.73 249.395 1153.13 263.896 1172.42 258.362C1191.72 252.828 1201.49 229.068 1194.77 205.25C1188.05 181.433 1166.6 166.815 1147.33 172.407Z" fill="#EF9C07"/>
<path d="M1223.09 139.722C1205.78 149.859 1201.88 175.38 1214.38 196.724C1226.88 218.069 1251.03 227.154 1268.34 217.017C1285.64 206.88 1289.54 181.359 1277.05 160.014C1264.55 138.67 1240.39 129.585 1223.09 139.722Z" fill="#EF9C07"/>
<path d="M1114.84 133.124C1123.95 139.542 1134.55 143.516 1145.63 144.667C1156.71 145.819 1167.9 144.109 1178.13 139.701C1188.36 135.293 1197.28 128.334 1204.06 119.489C1210.83 110.644 1215.22 100.207 1216.81 89.1754L1223.44 43.6045C1224.41 36.5991 1223.44 29.4624 1220.66 22.9594C1217.97 16.8141 1213.71 11.4823 1208.32 7.49702C1202.92 3.51172 1196.58 1.01244 1189.92 0.24902C1183.26 -0.514413 1176.52 0.484776 1170.36 3.14666C1164.21 5.80853 1158.87 10.0399 1154.87 15.4178C1149.06 23.2859 1141.27 29.4701 1132.29 33.3394C1123.31 37.2086 1113.47 38.6246 1103.76 37.4427C1097.1 36.6591 1090.36 37.6377 1084.2 40.2809C1078.04 42.924 1072.68 47.1391 1068.66 52.5048C1064.65 57.8705 1062.11 64.1989 1061.3 70.8574C1060.49 77.516 1061.44 84.2714 1064.06 90.4486C1066.88 96.9368 1071.41 102.537 1077.16 106.648L1114.84 133.124Z" fill="#EF9C07"/>
<path d="M1301.91 129.094C1286.95 138.881 1265.1 131.88 1253.01 113.506C1240.98 95.1075 1243.38 72.2983 1258.29 62.5363C1273.19 52.7741 1295.09 59.8927 1307.13 78.1491C1319.17 96.4054 1316.88 119.307 1301.91 129.094Z" fill="#EF9C07"/>
<path d="M1107.67 176.146C1112.82 197.785 1102.8 218.242 1085.41 222.397C1068.03 226.552 1049.91 212.583 1044.8 191.204C1039.69 169.824 1049.63 149.192 1066.99 144.978C1084.36 140.764 1102.51 154.507 1107.67 176.146Z" fill="#EF9C07"/>
<path d="M196.984 279.625C211.969 292.96 237.264 288.724 253.911 270.412C270.557 252.1 271.528 226.27 256.617 212.83C241.705 199.389 216.373 203.678 199.726 221.99C183.08 240.302 182.036 266.237 196.984 279.625Z" fill="#EF9C07"/>
<path d="M129.146 232.668C146.908 241.98 170.623 231.775 182.113 209.873C193.604 187.97 188.52 162.666 170.758 153.353C152.995 144.04 129.281 154.246 117.791 176.148C106.3 198.05 111.384 223.355 129.146 232.668Z" fill="#EF9C07"/>
<path d="M180.865 327.992C181.484 316.863 179.242 305.764 174.351 295.755C169.461 285.745 162.087 277.159 152.932 270.816C143.777 264.473 133.147 260.585 122.058 259.524C110.968 258.462 99.7891 260.262 89.5873 264.751L47.4184 283.256C40.9663 286.15 35.4212 290.744 31.3776 296.547C27.5899 302.085 25.3205 308.519 24.7962 315.206C24.2719 321.893 25.511 328.598 28.3898 334.653C31.2686 340.707 35.6863 345.898 41.2011 349.706C46.7159 353.515 53.1348 355.807 59.8163 356.355C69.5658 357.116 78.9366 360.45 86.9728 366.018C95.009 371.585 101.423 379.187 105.56 388.048C108.42 394.111 112.822 399.315 118.325 403.141C123.829 406.966 130.241 409.278 136.92 409.846C143.6 410.415 150.314 409.219 156.39 406.379C162.466 403.539 167.693 399.154 171.547 393.662C175.559 387.837 177.913 381.031 178.355 373.974L180.865 327.992Z" fill="#EF9C07"/>
<path d="M78.3936 171.424C94.6186 178.935 100.248 201.178 91.0617 221.161C81.8227 241.107 61.202 251.147 45.0295 243.673C28.8569 236.199 23.3 213.851 32.4138 193.973C41.5276 174.095 62.1686 163.914 78.3936 171.424Z" fill="#EF9C07"/>
<path d="M221.159 311.297C236.786 295.465 259.443 293.131 272.175 305.683C284.907 318.235 282.647 340.996 267.218 356.654C251.789 372.312 229.022 374.803 216.254 362.304C203.485 349.804 205.532 327.128 221.159 311.297Z" fill="#EF9C07"/>
<path d="M1474.08 709.124C1493.87 705.861 1506.48 683.53 1502.72 659.071C1498.95 634.612 1479.48 617.612 1459.65 620.752C1439.82 623.892 1427.22 646.284 1430.99 670.743C1434.76 695.202 1454.27 712.325 1474.08 709.124Z" fill="#EF9C07"/>
<path d="M1394.9 732.332C1413.31 724.38 1420.29 699.524 1410.49 676.816C1400.69 654.107 1377.82 642.145 1359.41 650.098C1341 658.05 1334.02 682.905 1343.82 705.614C1353.62 728.322 1376.49 740.284 1394.9 732.332Z" fill="#EF9C07"/>
<path d="M1501.54 752.075C1493.28 744.594 1483.24 739.357 1472.38 736.864C1461.52 734.371 1450.21 734.704 1439.52 737.832C1428.83 740.961 1419.12 746.78 1411.32 754.734C1403.52 762.688 1397.89 772.511 1394.97 783.266L1382.83 827.689C1381.02 834.525 1381.11 841.726 1383.08 848.52C1385 854.947 1388.58 860.758 1393.44 865.371C1398.31 869.984 1404.31 873.238 1410.82 874.808C1417.34 876.377 1424.16 876.207 1430.58 874.315C1437.01 872.423 1442.83 868.874 1447.46 864.024C1454.18 856.923 1462.67 851.734 1472.05 848.988C1481.44 846.242 1491.38 846.037 1500.87 848.393C1507.38 849.982 1514.2 849.833 1520.63 847.96C1527.07 846.088 1532.9 842.557 1537.54 837.721C1542.19 832.885 1545.48 826.914 1547.09 820.403C1548.7 813.893 1548.58 807.072 1546.74 800.621C1544.73 793.838 1540.92 787.728 1535.71 782.946L1501.54 752.075Z" fill="#EF9C07"/>
<path d="M1315.37 733.273C1331.41 725.382 1352.25 734.994 1362 754.704C1371.7 774.432 1366.54 796.779 1350.56 804.651C1334.57 812.524 1313.7 802.789 1303.98 783.202C1294.26 763.615 1299.32 741.163 1315.37 733.273Z" fill="#EF9C07"/>
<path d="M1513.9 710.248C1511.42 688.142 1523.86 669.059 1541.62 667.054C1559.39 665.05 1575.67 681.122 1578.14 702.965C1580.6 724.809 1568.22 744.075 1550.47 746.141C1532.73 748.207 1516.38 732.354 1513.9 710.248Z" fill="#EF9C07"/>
<path d="M1028.18 1412.05C1047.42 1417.74 1068.5 1403.14 1075.77 1379.48C1083.05 1355.83 1072.93 1332.04 1053.72 1326.22C1034.5 1320.41 1013.41 1335.07 1006.14 1358.73C998.864 1382.38 1008.96 1406.29 1028.18 1412.05Z" fill="#EF9C07"/>
<path d="M946.81 1398.42C966.846 1399.29 983.962 1379.97 985.039 1355.26C986.117 1330.55 970.747 1309.81 950.71 1308.94C930.674 1308.07 913.558 1327.4 912.48 1352.11C911.403 1376.82 926.773 1397.56 946.81 1398.42Z" fill="#EF9C07"/>
<path d="M1034.18 1462.68C1030 1452.34 1023.25 1443.25 1014.56 1436.28C1005.88 1429.3 995.552 1424.67 984.569 1422.82C973.585 1420.98 962.311 1421.99 951.824 1425.74C941.337 1429.5 931.987 1435.89 924.665 1444.29L894.381 1478.98C889.774 1484.35 886.711 1490.87 885.522 1497.84C884.451 1504.46 885.135 1511.25 887.506 1517.52C889.878 1523.8 893.853 1529.34 899.035 1533.59C904.216 1537.85 910.423 1540.66 917.034 1541.76C923.645 1542.86 930.43 1542.21 936.709 1539.86C945.855 1536.4 955.754 1535.43 965.396 1537.04C975.037 1538.66 984.077 1542.81 991.592 1549.07C996.76 1553.34 1002.96 1556.18 1009.57 1557.29C1016.17 1558.41 1022.96 1557.78 1029.25 1555.45C1035.53 1553.12 1041.1 1549.18 1045.39 1544.03C1049.68 1538.87 1052.54 1532.68 1053.69 1526.07C1054.85 1519.09 1054.08 1511.93 1051.48 1505.35L1034.18 1462.68Z" fill="#EF9C07"/>
<path d="M874.819 1364.6C892.697 1364.49 907.258 1382.23 907.449 1404.22C907.577 1426.2 893.189 1444.06 875.374 1444.18C857.558 1444.3 843.019 1426.44 842.806 1404.58C842.594 1382.71 856.94 1364.71 874.819 1364.6Z" fill="#EF9C07"/>
<path d="M1063.54 1430.42C1070.94 1409.44 1090.45 1397.69 1107.31 1403.63C1124.18 1409.57 1131.82 1431.13 1124.52 1451.86C1117.22 1472.6 1097.68 1484.54 1080.8 1478.66C1063.93 1472.79 1056.13 1451.4 1063.54 1430.42Z" fill="#EF9C07"/>
<path d="M1931.64 308.179C1951.39 304.704 1963.77 282.24 1959.74 257.823C1955.71 233.405 1936.06 216.615 1916.26 219.967C1896.47 223.32 1884.11 245.846 1888.14 270.263C1892.17 294.68 1911.86 311.593 1931.64 308.179Z" fill="#EF9C07"/>
<path d="M1852.72 332.235C1871.04 324.086 1877.76 299.157 1867.71 276.555C1857.67 253.953 1834.67 242.237 1816.34 250.386C1798.02 258.535 1791.31 283.464 1801.35 306.066C1811.39 328.668 1834.39 340.384 1852.72 332.235Z" fill="#EF9C07"/>
<path d="M1959.56 350.834C1951.22 343.442 1941.12 338.313 1930.24 335.936C1919.36 333.559 1908.05 334.014 1897.39 337.257C1886.74 340.5 1877.09 346.422 1869.38 354.459C1861.66 362.496 1856.14 372.38 1853.33 383.166L1841.67 427.716C1839.94 434.571 1840.1 441.771 1842.14 448.543C1844.13 454.949 1847.77 460.721 1852.69 465.282C1857.6 469.843 1863.63 473.032 1870.16 474.532C1876.7 476.032 1883.51 475.789 1889.92 473.828C1896.33 471.866 1902.11 468.256 1906.69 463.357C1913.33 456.183 1921.76 450.904 1931.11 448.057C1940.47 445.211 1950.41 444.899 1959.92 447.153C1966.45 448.673 1973.27 448.451 1979.68 446.509C1986.1 444.567 1991.89 440.974 1996.48 436.089C2001.07 431.204 2004.3 425.197 2005.84 418.67C2007.38 412.142 2007.19 405.323 2005.27 398.893C2003.2 392.132 1999.32 386.063 1994.06 381.337L1959.56 350.834Z" fill="#EF9C07"/>
<path d="M1773.2 334.028C1789.16 325.966 1810.09 335.354 1820.06 354.959C1829.97 374.582 1825.05 396.982 1809.15 405.026C1793.25 413.069 1772.28 403.559 1762.35 384.077C1752.41 364.595 1757.24 342.091 1773.2 334.028Z" fill="#EF9C07"/>
<path d="M1971.47 308.877C1968.76 286.798 1980.99 267.583 1998.73 265.388C2016.48 263.193 2032.92 279.09 2035.62 300.906C2038.33 322.721 2026.15 342.12 2008.43 344.376C1990.7 346.632 1974.19 330.955 1971.47 308.877Z" fill="#EF9C07"/>
<path d="M805.334 2277.59C821.754 2289.11 846.393 2281.99 860.821 2261.88C875.249 2241.78 873.239 2216.01 856.879 2204.37C840.52 2192.74 815.85 2199.92 801.422 2220.02C786.995 2240.13 788.944 2266.01 805.334 2277.59Z" fill="#EF9C07"/>
<path d="M732.541 2238.75C751.257 2245.96 773.638 2233.09 782.531 2210.01C791.424 2186.93 783.46 2162.38 764.744 2155.18C746.028 2147.97 723.646 2160.84 714.754 2183.92C705.861 2207 713.825 2231.55 732.541 2238.75Z" fill="#EF9C07"/>
<path d="M794.89 2327.49C794.224 2316.36 790.719 2305.6 784.709 2296.22C778.699 2286.84 770.384 2279.16 760.56 2273.91C750.736 2268.66 739.73 2266.03 728.592 2266.25C717.454 2266.47 706.556 2269.55 696.939 2275.18L657.181 2298.42C651.105 2302.03 646.125 2307.24 642.777 2313.47C639.652 2319.4 638.138 2326.05 638.387 2332.76C638.636 2339.46 640.639 2345.98 644.196 2351.66C647.752 2357.34 652.739 2361.99 658.655 2365.14C664.572 2368.29 671.212 2369.83 677.912 2369.6C687.684 2369.23 697.377 2371.47 706 2376.07C714.624 2380.68 721.871 2387.49 727.001 2395.82C730.54 2401.51 735.512 2406.17 741.419 2409.34C747.326 2412.51 753.961 2414.06 760.662 2413.86C767.363 2413.66 773.894 2411.69 779.603 2408.17C785.312 2404.65 789.999 2399.7 793.195 2393.8C796.51 2387.55 798.064 2380.52 797.691 2373.46L794.89 2327.49Z" fill="#EF9C07"/>
<path d="M675.075 2183.76C692.056 2189.35 700.21 2210.8 693.385 2231.71C686.504 2252.59 667.176 2264.93 650.25 2259.37C633.325 2253.81 625.232 2232.25 631.997 2211.45C638.761 2190.66 658.093 2178.17 675.075 2183.76Z" fill="#EF9C07"/>
<path d="M832.994 2306.27C846.695 2288.74 868.933 2283.82 883.025 2294.82C897.118 2305.82 897.493 2328.69 883.969 2346.02C870.445 2363.35 848.117 2368.45 833.994 2357.5C819.872 2346.55 819.294 2323.79 832.994 2306.27Z" fill="#EF9C07"/>
<path d="M1580.69 2029.43C1592.18 2045.87 1617.77 2047.6 1638.2 2033.63C1658.63 2019.67 1665.55 1994.76 1654.15 1978.24C1642.75 1961.71 1617.12 1960.03 1596.69 1973.99C1576.26 1987.96 1569.24 2012.95 1580.69 2029.43Z" fill="#EF9C07"/>
<path d="M1525.55 1968.05C1540.68 1981.22 1566.11 1976.78 1582.35 1958.13C1598.6 1939.48 1599.51 1913.68 1584.38 1900.51C1569.25 1887.35 1543.82 1891.79 1527.58 1910.44C1511.33 1929.09 1510.42 1954.89 1525.55 1968.05Z" fill="#EF9C07"/>
<path d="M1553.82 2072.76C1557 2062.07 1557.38 2050.76 1554.94 2039.89C1552.5 2029.02 1547.31 2018.96 1539.87 2010.67C1532.43 2002.38 1522.99 1996.14 1512.44 1992.54C1501.9 1988.94 1490.61 1988.11 1479.64 1990.12L1434.34 1998.37C1427.39 1999.69 1420.93 2002.88 1415.66 2007.59C1410.69 2012.1 1407 2017.83 1404.94 2024.22C1402.88 2030.6 1402.54 2037.41 1403.94 2043.97C1405.34 2050.53 1408.44 2056.6 1412.92 2061.58C1417.4 2066.56 1423.12 2070.27 1429.49 2072.35C1438.8 2075.35 1447.15 2080.76 1453.68 2088.03C1460.21 2095.31 1464.69 2104.19 1466.67 2113.77C1468.05 2120.33 1471.12 2126.41 1475.59 2131.4C1480.06 2136.4 1485.77 2140.13 1492.13 2142.23C1498.5 2144.32 1505.31 2144.71 1511.88 2143.36C1518.45 2142 1524.54 2138.94 1529.56 2134.49C1534.82 2129.75 1538.68 2123.67 1540.74 2116.91L1553.82 2072.76Z" fill="#EF9C07"/>
<path d="M1490.34 1896.73C1504.39 1907.79 1504.72 1930.73 1491.16 1948.05C1477.56 1965.32 1455.17 1970.32 1441.17 1959.31C1427.16 1948.29 1426.93 1925.27 1440.39 1908.03C1453.86 1890.8 1476.29 1885.67 1490.34 1896.73Z" fill="#EF9C07"/>
<path d="M1596.88 2065.83C1615.75 2054.05 1638.33 2057.02 1647.81 2072.17C1657.3 2087.33 1649.83 2108.95 1631.2 2120.61C1612.57 2132.28 1589.84 2129.44 1580.31 2114.32C1570.78 2099.21 1578.02 2077.62 1596.88 2065.83Z" fill="#EF9C07"/>
<path d="M1860.34 2450.24C1857.81 2430.34 1835.96 2416.91 1811.38 2419.77C1786.8 2422.64 1769.09 2441.47 1771.5 2461.4C1773.91 2481.33 1795.82 2494.74 1820.4 2491.88C1844.98 2489.01 1862.81 2470.15 1860.34 2450.24Z" fill="#EF9C07"/>
<path d="M1880.62 2530.21C1873.35 2511.52 1848.77 2503.63 1825.72 2512.59C1802.66 2521.55 1789.87 2543.96 1797.14 2562.65C1804.41 2581.34 1828.99 2589.23 1852.04 2580.27C1875.09 2571.32 1887.89 2548.9 1880.62 2530.21Z" fill="#EF9C07"/>
<path d="M1904.27 2424.37C1896.49 2432.35 1890.89 2442.19 1888 2452.95C1885.11 2463.71 1885.03 2475.03 1887.76 2485.82C1890.49 2496.62 1895.95 2506.54 1903.61 2514.62C1911.27 2522.71 1920.88 2528.7 1931.52 2532.02L1975.47 2545.78C1982.23 2547.84 1989.43 2548.02 1996.29 2546.3C2002.79 2544.62 2008.73 2541.26 2013.52 2536.56C2018.31 2531.87 2021.78 2526 2023.59 2519.54C2025.39 2513.09 2025.48 2506.27 2023.82 2499.78C2022.17 2493.28 2018.83 2487.33 2014.16 2482.53C2007.31 2475.55 2002.44 2466.88 2000.04 2457.4C1997.64 2447.93 1997.8 2437.98 2000.5 2428.58C2002.33 2422.13 2002.43 2415.32 2000.8 2408.82C1999.16 2402.32 1995.85 2396.36 1991.19 2391.54C1986.53 2386.73 1980.68 2383.22 1974.23 2381.36C1967.79 2379.51 1960.96 2379.38 1954.45 2380.99C1947.6 2382.74 1941.35 2386.33 1936.38 2391.36L1904.27 2424.37Z" fill="#EF9C07"/>
<path d="M1878.63 2609.72C1871.34 2593.4 1881.71 2572.94 1901.77 2563.91C1921.84 2554.94 1943.98 2560.93 1951.26 2577.19C1958.54 2593.45 1948.04 2613.95 1928.11 2622.94C1908.18 2631.94 1885.93 2626.05 1878.63 2609.72Z" fill="#EF9C07"/>
<path d="M1862.93 2410.48C1840.75 2412.14 1822.14 2399.01 1820.79 2381.18C1819.44 2363.36 1836.1 2347.68 1858.02 2346.02C1879.94 2344.36 1898.73 2357.44 1900.15 2375.25C1901.56 2393.06 1885.11 2408.81 1862.93 2410.48Z" fill="#EF9C07"/>
<path d="M1207.25 2694.67C1226.49 2689.02 1236.29 2665.32 1229.57 2641.5C1222.85 2617.68 1201.45 2603.18 1182.16 2608.72C1162.86 2614.25 1153.09 2638.01 1159.81 2661.83C1166.53 2685.65 1187.98 2700.26 1207.25 2694.67Z" fill="#EF9C07"/>
<path d="M1131.49 2727.36C1148.8 2717.22 1152.7 2691.7 1140.2 2670.35C1127.7 2649.01 1103.55 2639.92 1086.24 2650.06C1068.94 2660.2 1065.04 2685.72 1077.53 2707.06C1090.03 2728.41 1114.19 2737.49 1131.49 2727.36Z" fill="#EF9C07"/>
<path d="M1239.74 2733.95C1230.63 2727.54 1220.03 2723.56 1208.95 2722.41C1197.87 2721.26 1186.68 2722.97 1176.45 2727.38C1166.22 2731.78 1157.3 2738.74 1150.52 2747.59C1143.75 2756.43 1139.36 2766.87 1137.77 2777.9L1131.14 2823.47C1130.17 2830.48 1131.14 2837.62 1133.92 2844.12C1136.61 2850.26 1140.87 2855.6 1146.26 2859.58C1151.66 2863.57 1158 2866.07 1164.66 2866.83C1171.32 2867.59 1178.06 2866.59 1184.22 2863.93C1190.37 2861.27 1195.71 2857.04 1199.71 2851.66C1205.52 2843.79 1213.31 2837.61 1222.29 2833.74C1231.27 2829.87 1241.11 2828.45 1250.82 2829.63C1257.48 2830.42 1264.22 2829.44 1270.38 2826.8C1276.54 2824.15 1281.9 2819.94 1285.91 2814.57C1289.93 2809.21 1292.47 2802.88 1293.28 2796.22C1294.09 2789.56 1293.14 2782.81 1290.52 2776.63C1287.7 2770.14 1283.17 2764.54 1277.42 2760.43L1239.74 2733.95Z" fill="#EF9C07"/>
<path d="M1052.67 2737.98C1067.63 2728.2 1089.48 2735.2 1101.57 2753.57C1113.6 2771.97 1111.2 2794.78 1096.29 2804.54C1081.39 2814.3 1059.49 2807.18 1047.45 2788.93C1035.41 2770.67 1037.7 2747.77 1052.67 2737.98Z" fill="#EF9C07"/>
<path d="M1246.91 2690.93C1241.76 2669.29 1251.78 2648.84 1269.16 2644.68C1286.55 2640.53 1304.67 2654.49 1309.78 2675.87C1314.89 2697.25 1304.95 2717.89 1287.59 2722.1C1270.22 2726.31 1252.07 2712.57 1246.91 2690.93Z" fill="#EF9C07"/>
<path d="M542.567 2963.96C527.582 2950.63 502.287 2954.86 485.64 2973.18C468.994 2991.49 468.023 3017.32 482.934 3030.76C497.846 3044.2 523.178 3039.91 539.825 3021.6C556.471 3003.29 557.515 2977.35 542.567 2963.96Z" fill="#EF9C07"/>
<path d="M610.404 3010.92C592.642 3001.61 568.928 3011.81 557.438 3033.71C545.947 3055.62 551.031 3080.92 568.793 3090.23C586.555 3099.55 610.269 3089.34 621.76 3067.44C633.251 3045.54 628.166 3020.23 610.404 3010.92Z" fill="#EF9C07"/>
<path d="M558.686 2915.6C558.067 2926.72 560.309 2937.82 565.199 2947.83C570.09 2957.84 577.464 2966.43 586.619 2972.77C595.774 2979.11 606.403 2983 617.493 2984.06C628.582 2985.13 639.762 2983.33 649.963 2978.84L692.132 2960.33C698.584 2957.44 704.13 2952.84 708.173 2947.04C711.961 2941.5 714.23 2935.07 714.755 2928.38C715.279 2921.69 714.04 2914.99 711.161 2908.93C708.282 2902.88 703.864 2897.69 698.35 2893.88C692.835 2890.07 686.416 2887.78 679.734 2887.23C669.985 2886.47 660.614 2883.14 652.578 2877.57C644.542 2872 638.128 2864.4 633.991 2855.54C631.13 2849.48 626.728 2844.27 621.225 2840.45C615.722 2836.62 609.31 2834.31 602.63 2833.74C595.951 2833.17 589.237 2834.37 583.161 2837.21C577.084 2840.05 571.858 2844.43 568.004 2849.93C563.992 2855.75 561.638 2862.56 561.196 2869.61L558.686 2915.6Z" fill="#EF9C07"/>
<path d="M661.157 3072.16C644.932 3064.65 639.302 3042.41 648.489 3022.43C657.728 3002.48 678.349 2992.44 694.521 2999.91C710.694 3007.39 716.251 3029.74 707.137 3049.61C698.023 3069.49 677.382 3079.67 661.157 3072.16Z" fill="#EF9C07"/>
<path d="M518.392 2932.29C502.765 2948.12 480.108 2950.46 467.376 2937.9C454.644 2925.35 456.904 2902.59 472.333 2886.93C487.762 2871.28 510.528 2868.78 523.297 2881.28C536.065 2893.78 534.019 2916.46 518.392 2932.29Z" fill="#EF9C07"/>
<path d="M266.732 1726.63C246.941 1729.89 234.325 1752.22 238.092 1776.68C241.86 1801.14 261.331 1818.14 281.159 1815C300.986 1811.86 313.584 1789.47 309.817 1765.01C306.05 1740.55 286.542 1723.43 266.732 1726.63Z" fill="#EF9C07"/>
<path d="M345.905 1703.42C327.494 1711.37 320.514 1736.23 330.315 1758.94C340.116 1781.65 362.987 1793.61 381.399 1785.66C399.81 1777.7 406.79 1752.85 396.989 1730.14C387.188 1707.43 364.316 1695.47 345.905 1703.42Z" fill="#EF9C07"/>
<path d="M239.267 1683.68C247.53 1691.16 257.569 1696.4 268.427 1698.89C279.284 1701.38 290.598 1701.05 301.287 1697.92C311.976 1694.79 321.684 1688.97 329.484 1681.02C337.284 1673.07 342.916 1663.24 345.841 1652.49L357.975 1608.07C359.784 1601.23 359.699 1594.03 357.731 1587.24C355.807 1580.81 352.233 1575 347.364 1570.38C342.495 1565.77 336.502 1562.52 329.984 1560.95C323.467 1559.38 316.653 1559.55 310.223 1561.44C303.794 1563.33 297.975 1566.88 293.347 1571.73C286.624 1578.83 278.138 1584.02 268.755 1586.77C259.372 1589.51 249.428 1589.72 239.937 1587.36C233.424 1585.77 226.609 1585.92 220.174 1587.79C213.739 1589.67 207.909 1593.2 203.266 1598.03C198.623 1602.87 195.331 1608.84 193.717 1615.35C192.104 1621.86 192.226 1628.68 194.072 1635.13C196.076 1641.92 199.887 1648.03 205.096 1652.81L239.267 1683.68Z" fill="#EF9C07"/>
<path d="M425.44 1702.48C409.396 1710.37 388.562 1700.76 378.804 1681.05C369.107 1661.32 374.27 1638.98 390.252 1631.1C406.235 1623.23 427.104 1632.97 436.827 1652.55C446.549 1672.14 441.483 1694.59 425.44 1702.48Z" fill="#EF9C07"/>
<path d="M226.905 1725.51C229.385 1747.61 216.949 1766.7 199.183 1768.7C181.417 1770.7 165.143 1754.63 162.673 1732.79C160.203 1710.95 172.585 1691.68 190.333 1689.61C208.082 1687.55 224.425 1703.4 226.905 1725.51Z" fill="#EF9C07"/>
<path d="M72.7061 2593.77C52.9505 2597.24 40.5754 2619.71 44.6045 2644.13C48.6336 2668.54 68.2863 2685.33 88.0792 2681.98C107.872 2678.63 120.229 2656.1 116.2 2631.69C112.17 2607.27 92.4804 2590.35 72.7061 2593.77Z" fill="#EF9C07"/>
<path d="M151.626 2569.71C133.3 2577.86 126.587 2602.79 136.632 2625.39C146.676 2648 169.674 2659.71 187.999 2651.56C206.324 2643.41 213.037 2618.48 202.993 2595.88C192.949 2573.28 169.951 2561.56 151.626 2569.71Z" fill="#EF9C07"/>
<path d="M44.7819 2551.11C53.1245 2558.51 63.2194 2563.64 74.1031 2566.01C84.9868 2568.39 96.296 2567.93 106.951 2564.69C117.606 2561.45 127.251 2555.53 134.965 2547.49C142.679 2539.45 148.205 2529.57 151.016 2518.78L162.673 2474.23C164.408 2467.38 164.246 2460.18 162.205 2453.41C160.213 2447 156.576 2441.23 151.658 2436.67C146.74 2432.11 140.712 2428.92 134.178 2427.42C127.644 2425.92 120.833 2426.16 114.424 2428.12C108.015 2430.08 102.234 2433.69 97.6581 2438.59C91.0117 2445.77 82.582 2451.04 73.2291 2453.89C63.8762 2456.74 53.935 2457.05 44.4193 2454.8C37.8898 2453.28 31.0773 2453.5 24.6627 2455.44C18.248 2457.38 12.4559 2460.97 7.86518 2465.86C3.27448 2470.74 0.0457224 2476.75 -1.49786 2483.28C-3.04143 2489.81 -2.84588 2496.63 -0.931082 2503.06C1.14631 2509.82 5.02278 2515.89 10.2825 2520.61L44.7819 2551.11Z" fill="#EF9C07"/>
<path d="M231.145 2567.92C215.187 2575.98 194.252 2566.59 184.283 2546.99C174.375 2527.37 179.298 2504.97 195.195 2496.92C211.092 2488.88 232.065 2498.39 241.997 2517.87C251.929 2537.35 247.103 2559.86 231.145 2567.92Z" fill="#EF9C07"/>
<path d="M32.869 2593.07C35.5859 2615.15 23.3559 2634.37 5.61214 2636.56C-12.1316 2638.75 -28.5767 2622.86 -31.2803 2601.04C-33.9839 2579.23 -21.8101 2559.83 -4.08501 2557.57C13.6401 2555.32 30.1521 2570.99 32.869 2593.07Z" fill="#EF9C07"/>
<path d="M1017.66 3400.13C1034.08 3411.63 1058.72 3404.52 1073.14 3384.46C1087.57 3364.39 1085.56 3338.66 1069.2 3327.05C1052.84 3315.44 1028.17 3322.6 1013.74 3342.67C999.317 3362.74 1001.27 3388.58 1017.66 3400.13Z" fill="#EF9C07"/>
<path d="M944.863 3361.37C963.579 3368.56 985.961 3355.72 994.853 3332.68C1003.75 3309.65 995.782 3285.14 977.066 3277.95C958.35 3270.76 935.969 3283.6 927.076 3306.64C918.183 3329.67 926.147 3354.18 944.863 3361.37Z" fill="#EF9C07"/>
<path d="M1007.21 3449.94C1006.55 3438.83 1003.04 3428.09 997.031 3418.72C991.021 3409.36 982.707 3401.7 972.883 3396.46C963.058 3391.22 952.052 3388.59 940.914 3388.81C929.776 3389.03 918.878 3392.1 909.261 3397.73L869.503 3420.92C863.427 3424.53 858.448 3429.72 855.099 3435.94C851.974 3441.87 850.461 3448.51 850.71 3455.2C850.959 3461.89 852.962 3468.39 856.518 3474.06C860.075 3479.74 865.061 3484.37 870.978 3487.52C876.894 3490.66 883.534 3492.19 890.234 3491.97C900.007 3491.6 909.699 3493.83 918.323 3498.43C926.947 3503.03 934.193 3509.83 939.323 3518.14C942.862 3523.82 947.834 3528.47 953.741 3531.63C959.648 3534.79 966.284 3536.35 972.984 3536.15C979.685 3535.94 986.216 3533.98 991.925 3530.47C997.634 3526.96 1002.32 3522.01 1005.52 3516.12C1008.83 3509.88 1010.39 3502.86 1010.01 3495.82L1007.21 3449.94Z" fill="#EF9C07"/>
<path d="M887.397 3306.48C904.379 3312.06 912.532 3333.47 905.707 3354.34C898.826 3375.18 879.498 3387.5 862.573 3381.95C845.647 3376.4 837.554 3354.88 844.319 3334.12C851.084 3313.36 870.415 3300.9 887.397 3306.48Z" fill="#EF9C07"/>
<path d="M1045.32 3428.76C1059.02 3411.26 1081.25 3406.35 1095.35 3417.33C1109.44 3428.31 1109.82 3451.14 1096.29 3468.43C1082.77 3485.73 1060.44 3490.82 1046.32 3479.89C1032.19 3468.97 1031.62 3446.25 1045.32 3428.76Z" fill="#EF9C07"/>
<path d="M1854.65 3381.86C1866.14 3398.27 1891.73 3400 1912.16 3386.06C1932.59 3372.12 1939.51 3347.26 1928.11 3330.77C1916.71 3314.28 1891.07 3312.59 1870.64 3326.53C1850.21 3340.47 1843.2 3365.41 1854.65 3381.86Z" fill="#EF9C07"/>
<path d="M1799.51 3320.61C1814.63 3333.75 1840.07 3329.31 1856.31 3310.7C1872.56 3292.08 1873.46 3266.34 1858.34 3253.19C1843.21 3240.05 1817.78 3244.48 1801.53 3263.1C1785.29 3281.72 1784.38 3307.46 1799.51 3320.61Z" fill="#EF9C07"/>
<path d="M1827.78 3425.11C1830.95 3414.45 1831.34 3403.15 1828.9 3392.3C1826.45 3381.45 1821.26 3371.41 1813.83 3363.14C1806.39 3354.87 1796.94 3348.64 1786.4 3345.05C1775.86 3341.46 1764.56 3340.62 1753.6 3342.63L1708.3 3350.86C1701.35 3352.18 1694.89 3355.36 1689.62 3360.06C1684.65 3364.57 1680.95 3370.29 1678.9 3376.66C1676.84 3383.04 1676.49 3389.83 1677.9 3396.38C1679.3 3402.92 1682.39 3408.98 1686.88 3413.95C1691.36 3418.92 1697.08 3422.63 1703.45 3424.71C1712.76 3427.7 1721.1 3433.1 1727.63 3440.36C1734.17 3447.62 1738.65 3456.48 1740.62 3466.04C1742 3472.59 1745.08 3478.66 1749.55 3483.65C1754.02 3488.63 1759.72 3492.36 1766.09 3494.45C1772.46 3496.54 1779.27 3496.93 1785.83 3495.58C1792.4 3494.22 1798.5 3491.17 1803.52 3486.73C1808.77 3482 1812.64 3475.93 1814.7 3469.18L1827.78 3425.11Z" fill="#EF9C07"/>
<path d="M1764.3 3249.42C1778.35 3260.46 1778.68 3283.36 1765.12 3300.64C1751.52 3317.88 1729.13 3322.86 1715.13 3311.87C1701.12 3300.88 1700.88 3277.9 1714.35 3260.7C1727.81 3243.5 1750.25 3238.38 1764.3 3249.42Z" fill="#EF9C07"/>
<path d="M1870.84 3418.2C1889.7 3406.43 1912.29 3409.4 1921.77 3424.53C1931.25 3439.66 1923.79 3461.24 1905.16 3472.88C1886.53 3484.52 1863.8 3481.68 1854.27 3466.6C1844.74 3451.51 1851.97 3429.97 1870.84 3418.2Z" fill="#EF9C07"/>
<path d="M1838.39 3920.68C1835.86 3900.81 1814.01 3887.41 1789.43 3890.27C1764.85 3893.13 1747.14 3911.93 1749.55 3931.82C1751.96 3951.71 1773.87 3965.1 1798.45 3962.24C1823.04 3959.38 1840.86 3940.55 1838.39 3920.68Z" fill="#EF9C07"/>
<path d="M1858.67 4000.5C1851.4 3981.84 1826.82 3973.97 1803.77 3982.91C1780.71 3991.85 1767.92 4014.22 1775.19 4032.88C1782.46 4051.54 1807.04 4059.41 1830.09 4050.47C1853.15 4041.53 1865.94 4019.15 1858.67 4000.5Z" fill="#EF9C07"/>
<path d="M1882.33 3894.86C1874.55 3902.82 1868.94 3912.65 1866.05 3923.38C1863.16 3934.12 1863.08 3945.42 1865.81 3956.2C1868.54 3966.97 1874 3976.87 1881.66 3984.94C1889.33 3993.01 1898.93 3998.99 1909.58 4002.3L1953.52 4016.04C1960.29 4018.09 1967.49 4018.27 1974.35 4016.56C1980.84 4014.88 1986.78 4011.53 1991.57 4006.84C1996.36 4002.15 1999.83 3996.29 2001.64 3989.85C2003.45 3983.41 2003.53 3976.6 2001.87 3970.12C2000.22 3963.64 1996.89 3957.7 1992.21 3952.91C1985.36 3945.94 1980.49 3937.29 1978.09 3927.83C1975.69 3918.37 1975.85 3908.44 1978.55 3899.06C1980.38 3892.63 1980.48 3885.82 1978.85 3879.34C1977.21 3872.85 1973.9 3866.9 1969.24 3862.09C1964.58 3857.29 1958.73 3853.78 1952.28 3851.93C1945.84 3850.09 1939.02 3849.96 1932.5 3851.56C1925.65 3853.31 1919.4 3856.89 1914.43 3861.91L1882.33 3894.86Z" fill="#EF9C07"/>
<path d="M1856.69 4079.86C1849.39 4063.57 1859.76 4043.14 1879.82 4034.13C1899.89 4025.19 1922.03 4031.16 1929.31 4047.39C1936.59 4063.62 1926.09 4084.08 1906.16 4093.05C1886.23 4102.03 1863.98 4096.16 1856.69 4079.86Z" fill="#EF9C07"/>
<path d="M1840.98 3880.99C1818.8 3882.65 1800.19 3869.55 1798.84 3851.75C1797.49 3833.96 1814.15 3818.32 1836.07 3816.66C1857.99 3815 1876.79 3828.05 1878.2 3845.83C1879.61 3863.61 1863.17 3879.33 1840.98 3880.99Z" fill="#EF9C07"/>
<path d="M1206.11 4055.91C1225.36 4050.27 1235.16 4026.62 1228.44 4002.84C1221.72 3979.07 1200.32 3964.6 1181.02 3970.12C1161.73 3975.65 1151.95 3999.36 1158.67 4023.13C1165.39 4046.91 1186.84 4061.5 1206.11 4055.91Z" fill="#EF9C07"/>
<path d="M1130.36 4088.54C1147.66 4078.42 1151.56 4052.95 1139.07 4031.64C1126.57 4010.34 1102.41 4001.27 1085.11 4011.39C1067.8 4021.51 1063.9 4046.98 1076.4 4068.28C1088.9 4089.59 1113.06 4098.66 1130.36 4088.54Z" fill="#EF9C07"/>
<path d="M1238.61 4095.12C1229.5 4088.72 1218.89 4084.75 1207.81 4083.6C1196.73 4082.45 1185.54 4084.16 1175.32 4088.56C1165.09 4092.96 1156.16 4099.9 1149.39 4108.73C1142.62 4117.56 1138.22 4127.98 1136.63 4138.99L1130 4184.47C1129.04 4191.47 1130 4198.59 1132.78 4205.08C1135.48 4211.21 1139.73 4216.54 1145.13 4220.51C1150.52 4224.49 1156.87 4226.99 1163.53 4227.75C1170.19 4228.51 1176.93 4227.51 1183.08 4224.86C1189.23 4222.2 1194.58 4217.98 1198.58 4212.61C1204.39 4204.76 1212.18 4198.58 1221.15 4194.72C1230.13 4190.86 1239.98 4189.45 1249.68 4190.63C1256.34 4191.41 1263.09 4190.43 1269.25 4187.79C1275.41 4185.15 1280.76 4180.95 1284.78 4175.59C1288.8 4170.24 1291.34 4163.92 1292.15 4157.27C1292.96 4150.63 1292 4143.88 1289.38 4137.72C1286.57 4131.24 1282.04 4125.65 1276.29 4121.55L1238.61 4095.12Z" fill="#EF9C07"/>
<path d="M1051.53 4099.15C1066.5 4089.38 1088.35 4096.37 1100.43 4114.7C1112.46 4133.07 1110.06 4155.84 1095.16 4165.58C1080.25 4175.32 1058.35 4168.22 1046.32 4150C1034.28 4131.77 1036.57 4108.92 1051.53 4099.15Z" fill="#EF9C07"/>
<path d="M1245.78 4052.18C1240.62 4030.58 1250.64 4010.17 1268.03 4006.02C1285.42 4001.87 1303.53 4015.81 1308.65 4037.15C1313.76 4058.49 1303.82 4079.09 1286.45 4083.29C1269.09 4087.5 1250.94 4073.78 1245.78 4052.18Z" fill="#EF9C07"/>
<path d="M598.312 4592.47C583.328 4579.16 558.032 4583.38 541.385 4601.66C524.739 4619.94 523.768 4645.72 538.68 4659.14C553.591 4672.55 578.923 4668.27 595.57 4649.99C612.216 4631.71 613.26 4605.83 598.312 4592.47Z" fill="#EF9C07"/>
<path d="M666.15 4639.33C648.388 4630.04 624.674 4640.23 613.183 4662.09C601.692 4683.95 606.776 4709.2 624.539 4718.5C642.301 4727.8 666.015 4717.61 677.505 4695.75C688.996 4673.89 683.912 4648.63 666.15 4639.33Z" fill="#EF9C07"/>
<path d="M614.431 4544.19C613.812 4555.3 616.055 4566.38 620.945 4576.37C625.835 4586.36 633.209 4594.93 642.364 4601.26C651.519 4607.59 662.149 4611.47 673.238 4612.53C684.328 4613.59 695.507 4611.79 705.709 4607.31L747.878 4588.84C754.33 4585.95 759.875 4581.37 763.918 4575.58C767.706 4570.05 769.975 4563.63 770.5 4556.95C771.024 4550.28 769.785 4543.58 766.906 4537.54C764.027 4531.5 759.61 4526.32 754.095 4522.52C748.58 4518.72 742.161 4516.43 735.48 4515.88C725.73 4515.12 716.359 4511.79 708.323 4506.24C700.287 4500.68 693.873 4493.09 689.736 4484.25C686.875 4478.19 682.474 4473 676.971 4469.18C671.467 4465.36 665.055 4463.06 658.376 4462.49C651.696 4461.92 644.982 4463.12 638.906 4465.95C632.83 4468.79 627.603 4473.16 623.749 4478.64C619.737 4484.46 617.383 4491.25 616.941 4498.29L614.431 4544.19Z" fill="#EF9C07"/>
<path d="M716.902 4700.46C700.677 4692.97 695.048 4670.77 704.234 4650.82C713.473 4630.91 734.094 4620.89 750.266 4628.35C766.439 4635.81 771.996 4658.12 762.882 4677.96C753.768 4697.8 733.127 4707.96 716.902 4700.46Z" fill="#EF9C07"/>
<path d="M574.137 4560.85C558.51 4576.66 535.853 4578.98 523.121 4566.46C510.389 4553.93 512.649 4531.21 528.078 4515.58C543.507 4499.95 566.274 4497.47 579.042 4509.94C591.811 4522.42 589.765 4545.05 574.137 4560.85Z" fill="#EF9C07"/>
<path d="M25.1008 3288.46C5.30905 3291.72 -7.30618 3314 -3.53906 3338.42C0.228071 3362.83 19.6997 3379.8 39.5273 3376.66C59.355 3373.53 71.9523 3351.18 68.1852 3326.77C64.4181 3302.35 44.9106 3285.26 25.1008 3288.46Z" fill="#EF9C07"/>
<path d="M104.274 3265.29C85.8621 3273.23 78.8824 3298.04 88.6837 3320.71C98.485 3343.37 121.356 3355.31 139.767 3347.37C158.179 3339.44 165.159 3314.63 155.357 3291.96C145.556 3269.3 122.685 3257.36 104.274 3265.29Z" fill="#EF9C07"/>
<path d="M-2.36475 3245.59C5.89808 3253.05 15.9377 3258.28 26.7953 3260.77C37.6529 3263.26 48.9662 3262.93 59.6553 3259.8C70.3443 3256.68 80.0523 3250.87 87.8523 3242.93C95.6523 3235 101.284 3225.19 104.21 3214.46L116.344 3170.12C118.153 3163.29 118.068 3156.11 116.099 3149.33C114.176 3142.91 110.601 3137.11 105.732 3132.51C100.863 3127.9 94.8704 3124.65 88.3529 3123.09C81.8354 3121.52 75.0214 3121.69 68.592 3123.58C62.1626 3125.47 56.3432 3129.01 51.7151 3133.85C44.9921 3140.94 36.5062 3146.12 27.1233 3148.86C17.7404 3151.6 7.79627 3151.8 -1.69472 3149.45C-8.20744 3147.87 -15.0221 3148.01 -21.4572 3149.88C-27.8923 3151.75 -33.7227 3155.28 -38.3655 3160.1C-43.0084 3164.93 -46.3009 3170.89 -47.9144 3177.39C-49.5279 3183.89 -49.4058 3190.7 -47.5599 3197.13C-45.5552 3203.9 -41.744 3210 -36.5352 3214.78L-2.36475 3245.59Z" fill="#EF9C07"/>
<path d="M183.808 3264.35C167.765 3272.23 146.931 3262.64 137.173 3242.96C127.476 3223.27 132.639 3200.97 148.621 3193.11C164.603 3185.25 185.473 3194.97 195.195 3214.52C204.918 3234.07 199.852 3256.48 183.808 3264.35Z" fill="#EF9C07"/>
<path d="M-14.7267 3287.34C-12.2466 3309.4 -24.682 3328.45 -42.4482 3330.45C-60.2145 3332.45 -76.4885 3316.41 -78.9581 3294.61C-81.4277 3272.8 -69.0465 3253.57 -51.2982 3251.51C-33.5499 3249.45 -17.2068 3265.27 -14.7267 3287.34Z" fill="#EF9C07"/>
<path d="M67.4512 4082.26C47.6956 4085.73 35.3205 4108.16 39.3496 4132.53C43.3787 4156.9 63.0314 4173.66 82.8243 4170.31C102.617 4166.96 114.974 4144.48 110.945 4120.11C106.916 4095.74 87.2255 4078.86 67.4512 4082.26Z" fill="#EF9C07"/>
<path d="M146.371 4058.25C128.046 4066.39 121.333 4091.27 131.377 4113.83C141.421 4136.39 164.419 4148.08 182.744 4139.95C201.069 4131.82 207.782 4106.93 197.738 4084.37C187.694 4061.81 164.696 4050.12 146.371 4058.25Z" fill="#EF9C07"/>
<path d="M39.527 4039.69C47.8696 4047.07 57.9645 4052.19 68.8482 4054.56C79.7319 4056.93 91.0411 4056.48 101.696 4053.24C112.351 4050.01 121.996 4044.09 129.71 4036.07C137.424 4028.05 142.95 4018.19 145.761 4007.42L157.418 3962.95C159.153 3956.11 158.992 3948.93 156.95 3942.17C154.958 3935.77 151.321 3930.01 146.403 3925.46C141.485 3920.91 135.457 3917.72 128.924 3916.23C122.39 3914.73 115.578 3914.97 109.169 3916.93C102.76 3918.89 96.9791 3922.49 92.4033 3927.38C85.7568 3934.54 77.3271 3939.81 67.9742 3942.65C58.6213 3945.49 48.6801 3945.8 39.1644 3943.55C32.635 3942.04 25.8224 3942.26 19.4078 3944.2C12.9931 3946.13 7.20101 3949.72 2.61028 3954.6C-1.98047 3959.47 -5.20914 3965.47 -6.75275 3971.98C-8.29634 3978.5 -8.10083 3985.3 -6.18598 3991.72C-4.10859 3998.47 -0.232127 4004.53 5.02765 4009.25L39.527 4039.69Z" fill="#EF9C07"/>
<path d="M225.891 4056.46C209.933 4064.51 188.997 4055.14 179.028 4035.57C169.12 4015.99 174.043 3993.63 189.94 3985.6C205.837 3977.57 226.81 3987.06 236.742 4006.51C246.674 4025.96 241.849 4048.42 225.891 4056.46Z" fill="#EF9C07"/>
<path d="M27.6141 4081.57C30.3311 4103.61 18.101 4122.78 0.357248 4124.98C-17.3865 4127.17 -33.8315 4111.3 -36.5351 4089.52C-39.2387 4067.75 -27.065 4048.39 -9.3399 4046.14C8.38523 4043.88 24.8971 4059.53 27.6141 4081.57Z" fill="#EF9C07"/>
</mask>
<g mask="url(#mask0_551_29)">
<rect x="2" y="15" width="1920" height="9515" fill="url(#paint0_linear_551_29)" fill-opacity="0.8"/>
</g>
<defs>
<linearGradient id="paint0_linear_551_29" x1="962" y1="15" x2="962" y2="9530" gradientUnits="userSpaceOnUse">
<stop stop-color="white" stop-opacity="0"/>
<stop offset="0.0322914" stop-color="#F3C231"/>
<stop offset="0.167708" stop-color="#EF9C07"/>
<stop offset="0.579166" stop-color="#DB7B07"/>
<stop offset="0.782291" stop-color="#DB7B07"/>
<stop offset="1" stop-color="#BA6C0E"/>
</linearGradient>
</defs>
</svg>
