<svg width="66" height="66" viewBox="0 0 66 66" fill="none" xmlns="http://www.w3.org/2000/svg">
<g clip-path="url(#clip0_20_38)">
<path d="M33 66C51.2254 66 66 51.2254 66 33C66 14.7746 51.2254 0 33 0C14.7746 0 0 14.7746 0 33C0 51.2254 14.7746 66 33 66Z" fill="#A05D45"/>
<mask id="mask0_20_38" style="mask-type:alpha" maskUnits="userSpaceOnUse" x="0" y="0" width="66" height="66">
<path d="M33 66C51.2254 66 66 51.2254 66 33C66 14.7746 51.2254 0 33 0C14.7746 0 0 14.7746 0 33C0 51.2254 14.7746 66 33 66Z" fill="#A05D45"/>
</mask>
<g mask="url(#mask0_20_38)">
<path d="M40.6895 8.56806C41.0191 7.56924 42.2658 7.23734 43.0483 7.9399L88.93 49.1165C89.7924 49.8906 89.4511 51.3134 88.3309 51.6113L23.1185 68.9748C21.9984 69.2731 20.9947 68.2087 21.3582 67.1078L40.6895 8.56806Z" fill="#70423A"/>
</g>
<path fill-rule="evenodd" clip-rule="evenodd" d="M19.6906 63.206V20.4198H46.674V63.0423C42.508 64.9417 37.8774 65.9999 33 65.9999C28.2643 65.9999 23.7616 65.0022 19.6906 63.206Z" fill="#FFE445"/>
<path d="M52.0867 25.365C51.911 29.8249 48.8327 33.3248 45.2103 33.1822C41.5883 33.0397 38.7941 29.3088 38.9695 24.8489C39.1453 20.389 42.2239 16.8892 45.8459 17.0317C49.4679 17.1742 52.2621 20.9052 52.0867 25.365Z" fill="#FFE445"/>
<path d="M27.6552 24.8487C27.8304 29.3085 25.0362 33.0393 21.414 33.1816C17.7919 33.3239 14.7135 29.8239 14.5383 25.364C14.3631 20.9042 17.1573 17.1733 20.7795 17.031C24.4016 16.8887 27.48 20.3888 27.6552 24.8487Z" fill="#FFE445"/>
<path d="M46.2751 16.9193C45.2476 21.8479 40.9204 25.1147 36.6103 24.2159C32.3005 23.3171 29.6399 18.5931 30.6677 13.6645C31.6955 8.73583 36.0227 5.46905 40.3326 6.36788C44.6426 7.26669 47.303 11.9908 46.2751 16.9193Z" fill="#FFE445"/>
<path d="M35.7007 13.6644C36.7284 18.593 34.0679 23.3171 29.758 24.2159C25.4481 25.1148 21.1209 21.848 20.0931 16.9193C19.0653 11.9907 21.7259 7.26668 26.0358 6.36787C30.3457 5.46907 34.6728 8.73585 35.7007 13.6644Z" fill="#FFE445"/>
<mask id="mask1_20_38" style="mask-type:alpha" maskUnits="userSpaceOnUse" x="14" y="6" width="39" height="60">
<path fill-rule="evenodd" clip-rule="evenodd" d="M19.6906 63.206V20.4198H46.674V63.0423C42.508 64.9417 37.8774 65.9999 33 65.9999C28.2643 65.9999 23.7616 65.0022 19.6906 63.206Z" fill="#FFE445"/>
<path d="M52.0868 25.365C51.911 29.8249 48.8327 33.3248 45.2104 33.1822C41.5884 33.0397 38.7942 29.3088 38.9696 24.8489C39.1453 20.389 42.224 16.8892 45.846 17.0317C49.4679 17.1742 52.2622 20.9052 52.0868 25.365Z" fill="#FFE445"/>
<path d="M27.6552 24.8487C27.8304 29.3085 25.0362 33.0393 21.414 33.1816C17.7919 33.3239 14.7135 29.8239 14.5383 25.364C14.3631 20.9042 17.1573 17.1733 20.7795 17.031C24.4016 16.8887 27.48 20.3888 27.6552 24.8487Z" fill="#FFE445"/>
<path d="M46.2751 16.9193C45.2476 21.8479 40.9204 25.1147 36.6103 24.2159C32.3005 23.3171 29.6399 18.5931 30.6677 13.6645C31.6955 8.73583 36.0227 5.46905 40.3326 6.36788C44.6426 7.26669 47.303 11.9908 46.2751 16.9193Z" fill="#FFE445"/>
<path d="M35.7007 13.6644C36.7284 18.593 34.0679 23.3171 29.758 24.2159C25.4481 25.1148 21.1209 21.848 20.0931 16.9193C19.0653 11.9907 21.7259 7.26668 26.0358 6.36787C30.3457 5.46907 34.6728 8.73585 35.7007 13.6644Z" fill="#FFE445"/>
</mask>
<g mask="url(#mask1_20_38)">
<path d="M20.9669 56.1546C24.2898 56.1546 26.9835 53.2977 26.9835 49.7734C26.9835 46.2492 24.2898 43.3922 20.9669 43.3922C17.644 43.3922 14.9503 46.2492 14.9503 49.7734C14.9503 53.2977 17.644 56.1546 20.9669 56.1546Z" fill="#FFC010"/>
<path d="M57.6132 5.83411H33.1823V65.9999H57.6132V5.83411Z" fill="#FFC010"/>
</g>
<mask id="mask2_20_38" style="mask-type:alpha" maskUnits="userSpaceOnUse" x="14" y="6" width="39" height="60">
<mask id="mask3_20_38" style="mask-type:alpha" maskUnits="userSpaceOnUse" x="14" y="6" width="39" height="60">
<path fill-rule="evenodd" clip-rule="evenodd" d="M19.6906 63.206V20.4198H46.674V63.0423C42.508 64.9417 37.8774 65.9999 33 65.9999C28.2643 65.9999 23.7616 65.0022 19.6906 63.206Z" fill="#FFE445"/>
<path d="M52.0868 25.365C51.911 29.8249 48.8327 33.3248 45.2104 33.1822C41.5884 33.0397 38.7942 29.3088 38.9696 24.8489C39.1453 20.389 42.224 16.8892 45.846 17.0317C49.4679 17.1742 52.2622 20.9052 52.0868 25.365Z" fill="#FFE445"/>
<path d="M27.6552 24.8487C27.8304 29.3085 25.0362 33.0393 21.414 33.1816C17.7919 33.3239 14.7135 29.8239 14.5383 25.364C14.3631 20.9042 17.1573 17.1733 20.7795 17.031C24.4016 16.8887 27.48 20.3888 27.6552 24.8487Z" fill="#FFE445"/>
<path d="M46.2751 16.9193C45.2476 21.8479 40.9204 25.1147 36.6103 24.2159C32.3005 23.3171 29.6399 18.5931 30.6677 13.6645C31.6955 8.73583 36.0227 5.46905 40.3326 6.36788C44.6426 7.26669 47.303 11.9908 46.2751 16.9193Z" fill="#FFE445"/>
<path d="M35.7007 13.6644C36.7284 18.593 34.0679 23.3171 29.758 24.2159C25.4481 25.1148 21.1209 21.848 20.0931 16.9193C19.0653 11.9907 21.7259 7.26668 26.0358 6.36787C30.3457 5.46907 34.6728 8.73585 35.7007 13.6644Z" fill="#FFE445"/>
</mask>
<g mask="url(#mask3_20_38)">
<path d="M20.9669 56.1546C24.2898 56.1546 26.9835 53.2977 26.9835 49.7734C26.9835 46.2492 24.2898 43.3922 20.9669 43.3922C17.644 43.3922 14.9503 46.2492 14.9503 49.7734C14.9503 53.2977 17.644 56.1546 20.9669 56.1546Z" fill="#FFC010"/>
<path d="M57.6132 5.83411H33.1823V65.9999H57.6132V5.83411Z" fill="#FFC010"/>
</g>
</mask>
<g mask="url(#mask2_20_38)">
<path d="M46.6741 72.5636C52.7157 72.5636 57.6133 67.9108 57.6133 62.1713C57.6133 56.4318 52.7157 51.7791 46.6741 51.7791C40.6325 51.7791 35.7349 56.4318 35.7349 62.1713C35.7349 67.9108 40.6325 72.5636 46.6741 72.5636Z" fill="#EF9C07"/>
</g>
<path d="M40.4751 36.4641C39.3663 37.5452 34.8825 36.3547 33.1823 36.3547C31.4821 36.3547 26.9983 37.5452 25.8895 36.4641C22.1981 32.8653 27.8097 24.0663 33.1823 24.0663C38.5549 24.0663 44.1664 32.8653 40.4751 36.4641Z" fill="#EF9C07"/>
<path d="M31.7238 18.779C31.7238 20.3901 30.4177 21.6961 28.8067 21.6961C27.1956 21.6961 25.8895 20.3901 25.8895 18.779C25.8895 17.1679 27.1956 14.2209 28.8067 14.2209C30.4177 14.2209 31.7238 17.1679 31.7238 18.779Z" fill="#EF9C07"/>
<path d="M40.4751 18.779C40.4751 20.3901 39.169 21.6961 37.558 21.6961C35.9469 21.6961 34.6409 20.3901 34.6409 18.779C34.6409 17.1679 35.9469 14.2209 37.558 14.2209C39.169 14.2209 40.4751 17.1679 40.4751 18.779Z" fill="#EF9C07"/>
<path d="M45.9447 25.2936C45.9447 26.6296 44.8836 27.7127 43.5746 27.7127C42.2655 27.7127 41.2044 26.6296 41.2044 25.2936C41.2044 23.9576 42.2655 21.5138 43.5746 21.5138C44.8836 21.5138 45.9447 23.9576 45.9447 25.2936Z" fill="#EF9C07"/>
<path d="M25.1603 25.2936C25.1603 26.6296 24.0991 27.7127 22.7901 27.7127C21.4811 27.7127 20.4199 26.6296 20.4199 25.2936C20.4199 23.9576 21.4811 21.5138 22.7901 21.5138C24.0991 21.5138 25.1603 23.9576 25.1603 25.2936Z" fill="#EF9C07"/>
<mask id="mask4_20_38" style="mask-type:alpha" maskUnits="userSpaceOnUse" x="20" y="14" width="26" height="23">
<path d="M40.4751 36.4641C39.3663 37.5452 34.8825 36.3547 33.1823 36.3547C31.4821 36.3547 26.9983 37.5452 25.8895 36.4641C22.1981 32.8653 27.8097 24.0663 33.1823 24.0663C38.5549 24.0663 44.1664 32.8653 40.4751 36.4641Z" fill="#EF9C07"/>
<path d="M31.7238 18.779C31.7238 20.3901 30.4177 21.6961 28.8067 21.6961C27.1956 21.6961 25.8895 20.3901 25.8895 18.779C25.8895 17.1679 27.1956 14.2209 28.8067 14.2209C30.4177 14.2209 31.7238 17.1679 31.7238 18.779Z" fill="#EF9C07"/>
<path d="M40.4751 18.779C40.4751 20.3901 39.169 21.6961 37.558 21.6961C35.9469 21.6961 34.6409 20.3901 34.6409 18.779C34.6409 17.1679 35.9469 14.2209 37.558 14.2209C39.169 14.2209 40.4751 17.1679 40.4751 18.779Z" fill="#EF9C07"/>
<path d="M45.9447 25.2935C45.9447 26.6295 44.8836 27.7126 43.5746 27.7126C42.2655 27.7126 41.2044 26.6295 41.2044 25.2935C41.2044 23.9575 42.2655 21.5137 43.5746 21.5137C44.8836 21.5137 45.9447 23.9575 45.9447 25.2935Z" fill="#EF9C07"/>
<path d="M25.1603 25.2935C25.1603 26.6295 24.0991 27.7126 22.7901 27.7126C21.4811 27.7126 20.4199 26.6295 20.4199 25.2935C20.4199 23.9575 21.4811 21.5137 22.7901 21.5137C24.0991 21.5137 25.1603 23.9575 25.1603 25.2935Z" fill="#EF9C07"/>
</mask>
<g mask="url(#mask4_20_38)">
<path d="M50.6851 9.84521H33.1823V40.1104H50.6851V9.84521Z" fill="#DB7B07"/>
</g>
</g>
<defs>
<clipPath id="clip0_20_38">
<rect width="66" height="66" fill="white"/>
</clipPath>
</defs>
</svg>
