<svg width="47" height="46" viewBox="0 0 47 46" fill="none" xmlns="http://www.w3.org/2000/svg">
<g id="&#209;&#129;&#209;&#130;&#209;&#128;&#208;&#176;&#208;&#178;&#208;&#176;">
<path id="Vector" d="M17.3377 9.97709L17.3374 9.97736L17.3345 9.97993C16.7575 10.4936 16.0172 11.1527 16.0172 12.4567C16.0172 12.8987 16.3784 13.2599 16.8203 13.2599C17.2623 13.2599 17.6234 12.8987 17.6234 12.4567C17.6234 12.1766 17.6885 11.9785 17.8144 11.7931C17.9441 11.6023 18.1397 11.4224 18.4123 11.1817L18.4126 11.1814L18.4155 11.1789C18.9925 10.6652 19.7328 10.0061 19.7328 8.70205C19.7328 7.40303 18.9832 6.7369 18.4057 6.2298C18.1367 5.98563 17.9428 5.80408 17.8138 5.61227C17.6885 5.4258 17.6234 5.22749 17.6234 4.94736C17.6234 4.6709 17.6884 4.47255 17.8138 4.28598C17.9428 4.09419 18.1369 3.91241 18.4057 3.67189L18.4172 3.66172C18.9923 3.14973 19.7328 2.49061 19.7328 1.19971C19.7328 0.75776 19.3716 0.396582 18.9297 0.396582C18.4877 0.396582 18.1266 0.75776 18.1266 1.19971C18.1266 1.47617 18.0616 1.67452 17.9362 1.86109C17.8072 2.05288 17.6131 2.23466 17.3443 2.47518L17.3328 2.48535C16.7577 2.99734 16.0172 3.65646 16.0172 4.94736C16.0172 6.24659 16.767 6.91272 17.3446 7.41985C17.6132 7.66022 17.8073 7.84193 17.9362 8.03363C18.0616 8.22021 18.1266 8.41856 18.1266 8.69502C18.1266 8.97524 18.0615 9.17525 17.9353 9.36248C17.8057 9.55493 17.61 9.73666 17.3377 9.97709Z" fill="#A05D45" stroke="#A05D45" stroke-width="0.2"/>
<path id="Vector_2" d="M22.9627 9.97709L22.9624 9.97736L22.9595 9.97993C22.3825 10.4936 21.6422 11.1527 21.6422 12.4567C21.6422 12.8987 22.0034 13.2599 22.4453 13.2599C22.8873 13.2599 23.2484 12.8987 23.2484 12.4567C23.2484 12.1766 23.3135 11.9785 23.4394 11.7931C23.5691 11.6023 23.7647 11.4224 24.0373 11.1817L24.0376 11.1814L24.0405 11.1789C24.6175 10.6652 25.3578 10.0061 25.3578 8.70205C25.3578 7.40303 24.6082 6.7369 24.0307 6.2298C23.7617 5.98563 23.5678 5.80408 23.4388 5.61227C23.3135 5.4258 23.2484 5.22749 23.2484 4.94736C23.2484 4.6709 23.3134 4.47255 23.4388 4.28598C23.5678 4.09419 23.7619 3.91241 24.0307 3.67189L24.0422 3.66172C24.6173 3.14973 25.3578 2.49061 25.3578 1.19971C25.3578 0.75776 24.9966 0.396582 24.5547 0.396582C24.1127 0.396582 23.7516 0.75776 23.7516 1.19971C23.7516 1.47617 23.6866 1.67452 23.5612 1.86109C23.4322 2.05288 23.2381 2.23466 22.9693 2.47518L22.9578 2.48535C22.3827 2.99734 21.6422 3.65646 21.6422 4.94736C21.6422 6.24659 22.392 6.91272 22.9696 7.41985C23.2382 7.66022 23.4323 7.84193 23.5612 8.03363C23.6866 8.22021 23.7516 8.41856 23.7516 8.69502C23.7516 8.97524 23.6865 9.17525 23.5603 9.36248C23.4307 9.55493 23.235 9.73666 22.9627 9.97709Z" fill="#A05D45" stroke="#A05D45" stroke-width="0.2"/>
<path id="Vector_3" d="M28.5877 9.97709L28.5874 9.97736L28.5845 9.97993C28.0075 10.4936 27.2672 11.1527 27.2672 12.4567C27.2672 12.8987 27.6284 13.2599 28.0703 13.2599C28.5123 13.2599 28.8734 12.8987 28.8734 12.4567C28.8734 12.1766 28.9385 11.9785 29.0644 11.7931C29.1941 11.6023 29.3897 11.4224 29.6623 11.1817L29.6626 11.1814L29.6655 11.1789C30.2425 10.6652 30.9828 10.0061 30.9828 8.70205C30.9828 7.40303 30.2332 6.7369 29.6557 6.2298C29.3867 5.98563 29.1928 5.80408 29.0638 5.61227C28.9385 5.4258 28.8734 5.22749 28.8734 4.94736C28.8734 4.6709 28.9384 4.47255 29.0638 4.28598C29.1928 4.09419 29.3869 3.91241 29.6557 3.67189L29.6672 3.66172C30.2423 3.14973 30.9828 2.49061 30.9828 1.19971C30.9828 0.75776 30.6216 0.396582 30.1797 0.396582C29.7377 0.396582 29.3766 0.75776 29.3766 1.19971C29.3766 1.47617 29.3116 1.67452 29.1862 1.86109C29.0572 2.05288 28.8631 2.23466 28.5943 2.47518L28.5828 2.48535C28.0077 2.99734 27.2672 3.65646 27.2672 4.94736C27.2672 6.24659 28.017 6.91272 28.5946 7.41985C28.8632 7.66022 29.0573 7.84193 29.1862 8.03363C29.3116 8.22021 29.3766 8.41856 29.3766 8.69502C29.3766 8.97524 29.3115 9.17525 29.1853 9.36248C29.0557 9.55493 28.86 9.73666 28.5877 9.97709Z" fill="#A05D45" stroke="#A05D45" stroke-width="0.2"/>
<path id="Vector_4" d="M43.8906 38.3653H31.436C38.8018 35.2592 43.9906 27.9698 43.9906 19.481C43.9906 19.2764 43.9593 19.066 43.8034 18.8644C43.6502 18.6664 43.386 18.489 42.9484 18.3247C42.0746 17.9968 40.4606 17.7043 37.494 17.4407L37.494 17.4407C33.7496 17.1099 28.7825 16.92 23.5 16.92C18.2177 16.92 13.2505 17.1029 9.50588 17.4407C6.53938 17.7043 4.92541 17.9968 4.05159 18.3247C3.61395 18.489 3.34979 18.6664 3.19661 18.8644C3.04071 19.066 3.00938 19.2764 3.00938 19.481C3.00938 27.9629 8.19815 35.2589 15.564 38.3653H3.10938C1.89399 38.3653 0.9 39.3593 0.9 40.5747C0.9 41.7901 1.89399 42.7841 3.10938 42.7841H4.25244L8.12827 45.4587C8.1284 45.4588 8.12853 45.4589 8.12866 45.459C8.26557 45.5555 8.42633 45.6036 8.58672 45.6036H38.4203C38.5807 45.6036 38.7415 45.5555 38.8783 45.459C38.8785 45.4589 38.8786 45.4588 38.8788 45.4587L42.7546 42.7841H43.8906C45.106 42.7841 46.1 41.7901 46.1 40.5747C46.1 39.3593 45.106 38.3653 43.8906 38.3653ZM42.333 20.8313C41.6419 30.6198 33.4611 38.3653 23.5 38.3653C13.5386 38.3653 5.35757 30.6193 4.66693 20.8303C5.62034 21.0794 7.12498 21.3136 9.50587 21.5282L9.50604 21.5282C13.2504 21.859 18.2175 22.0489 23.5 22.0489C28.7823 22.0489 33.7496 21.8661 37.4941 21.5282C39.8807 21.3137 41.3796 21.0859 42.333 20.8313ZM23.5 18.5263C32.0582 18.5263 38.1892 18.9957 40.9835 19.4811C38.1938 19.9664 32.0571 20.4356 23.5 20.4356C14.9458 20.4356 8.81656 19.9667 6.02044 19.4815C8.81688 19.0013 14.9462 18.5263 23.5 18.5263ZM39.9268 42.7911L38.1642 44.0044H8.83587L7.07933 42.7911H39.9268ZM43.8906 41.1778H3.10938C2.77788 41.1778 2.50625 40.9062 2.50625 40.5747C2.50625 40.2432 2.77788 39.9716 3.10938 39.9716H43.8906C44.2221 39.9716 44.4938 40.2432 44.4938 40.5747C44.4938 40.9062 44.2221 41.1778 43.8906 41.1778Z" fill="#A05D45" stroke="#A05D45" stroke-width="0.2"/>
<path id="Vector_5" d="M8.13415 26.5001L8.13415 26.5001L13.9726 34.2466L13.9183 34.3305C13.9183 34.3305 13.9183 34.3306 13.9184 34.3306C14.0549 34.4189 14.2075 34.4591 14.3523 34.4591C14.6161 34.4591 14.8733 34.3312 15.0264 34.0908C15.2759 33.7267 15.1692 33.2284 14.793 32.9882C12.4313 31.4649 10.5027 29.3407 9.21706 26.8462C9.01542 26.4513 8.53309 26.3006 8.13415 26.5001Z" fill="#A05D45" stroke="#A05D45" stroke-width="0.2"/>
</g>
</svg>
